<?xml version="1.0" encoding="UTF-8"?>
<!DOCTYPE svg PUBLIC "-//W3C//DTD SVG 1.1//EN" "http://www.w3.org/Graphics/SVG/1.1/DTD/svg11.dtd">
<svg xmlns="http://www.w3.org/2000/svg" version="1.1" width="517px" height="482px" style="shape-rendering:geometricPrecision; text-rendering:geometricPrecision; image-rendering:optimizeQuality; fill-rule:evenodd; clip-rule:evenodd" xmlns:xlink="http://www.w3.org/1999/xlink">
<g><path style="opacity:1" fill="#434243" d="M 267.5,0.5 C 267.5,0.166667 267.5,-0.166667 267.5,-0.5C 270.833,-0.5 274.167,-0.5 277.5,-0.5C 277.5,-0.166667 277.5,0.166667 277.5,0.5C 276.448,0.350549 275.448,0.517215 274.5,1C 280.711,4.91959 282.877,10.4196 281,17.5C 277.636,26.0464 274.136,34.3797 270.5,42.5C 266.753,41.6205 263.087,40.6205 259.5,39.5C 256.781,38.087 253.781,37.4203 250.5,37.5C 250.5,36.8333 250.167,36.5 249.5,36.5C 253.044,27.074 256.878,17.7407 261,8.5C 262.892,4.94211 265.725,2.44211 269.5,1C 268.906,0.535656 268.239,0.368989 267.5,0.5 Z"/></g>
<g><path style="opacity:1" fill="#1b1b1b" d="M 277.5,0.5 C 287.456,3.39098 291.623,10.0577 290,20.5C 286.152,29.5258 282.318,38.5258 278.5,47.5C 277.221,46.032 275.554,45.3653 273.5,45.5C 272.306,44.7281 271.306,43.7281 270.5,42.5C 274.136,34.3797 277.636,26.0464 281,17.5C 282.877,10.4196 280.711,4.91959 274.5,1C 275.448,0.517215 276.448,0.350549 277.5,0.5 Z"/></g>
<g><path style="opacity:1" fill="#131113" d="M 267.5,0.5 C 268.239,0.368989 268.906,0.535656 269.5,1C 265.725,2.44211 262.892,4.94211 261,8.5C 256.878,17.7407 253.044,27.074 249.5,36.5C 248.833,36.5 248.167,36.5 247.5,36.5C 251.896,26.1546 256.396,15.8212 261,5.5C 262.558,2.97868 264.725,1.31201 267.5,0.5 Z"/></g>
<g><path style="opacity:1" fill="#270c60" d="M 247.5,36.5 C 248.167,36.5 248.833,36.5 249.5,36.5C 250.167,36.5 250.5,36.8333 250.5,37.5C 247.15,37.335 243.817,37.5017 240.5,38C 237.862,40.0934 238.196,41.5934 241.5,42.5C 239.435,42.4828 237.435,42.1495 235.5,41.5C 238.167,36.9719 242.167,35.3053 247.5,36.5 Z"/></g>
<g><path style="opacity:1" fill="#311bc4" d="M 250.5,37.5 C 253.781,37.4203 256.781,38.087 259.5,39.5C 254.162,38.9979 248.828,38.8312 243.5,39C 243.167,39.3333 242.833,39.6667 242.5,40C 246.262,41.4166 249.928,42.9166 253.5,44.5C 252.167,44.5 250.833,44.5 249.5,44.5C 247.393,43.5318 245.059,43.1984 242.5,43.5C 242.5,42.8333 242.167,42.5 241.5,42.5C 238.196,41.5934 237.862,40.0934 240.5,38C 243.817,37.5017 247.15,37.335 250.5,37.5 Z"/></g>
<g><path style="opacity:1" fill="#181af5" d="M 259.5,39.5 C 260.167,40.5 260.833,41.5 261.5,42.5C 261.511,44.0174 262.177,45.1841 263.5,46C 260.16,45.8452 256.826,45.3452 253.5,44.5C 249.928,42.9166 246.262,41.4166 242.5,40C 242.833,39.6667 243.167,39.3333 243.5,39C 248.828,38.8312 254.162,38.9979 259.5,39.5 Z"/></g>
<g><path style="opacity:1" fill="#b25751" d="M 235.5,42.5 C 235.5,42.1667 235.5,41.8333 235.5,41.5C 237.435,42.1495 239.435,42.4828 241.5,42.5C 242.167,42.5 242.5,42.8333 242.5,43.5C 240.05,43.702 237.717,43.3686 235.5,42.5 Z"/></g>
<g><path style="opacity:1" fill="#181a70" d="M 259.5,39.5 C 263.087,40.6205 266.753,41.6205 270.5,42.5C 271.306,43.7281 272.306,44.7281 273.5,45.5C 269.879,45.2916 266.546,44.2916 263.5,42.5C 262.833,42.5 262.167,42.5 261.5,42.5C 260.833,41.5 260.167,40.5 259.5,39.5 Z"/></g>
<g><path style="opacity:1" fill="#da7c38" d="M 235.5,42.5 C 237.717,43.3686 240.05,43.702 242.5,43.5C 245.059,43.1984 247.393,43.5318 249.5,44.5C 249.5,44.8333 249.5,45.1667 249.5,45.5C 244.859,44.8734 240.193,44.5401 235.5,44.5C 234.551,47.2075 234.551,49.8742 235.5,52.5C 242.784,53.3642 249.45,55.6975 255.5,59.5C 255.167,59.5 254.833,59.5 254.5,59.5C 252.079,59.1218 249.746,58.4552 247.5,57.5C 246.07,56.4625 244.403,55.7959 242.5,55.5C 241.167,55.5 239.833,55.5 238.5,55.5C 236.052,54.5269 233.385,54.1936 230.5,54.5C 230.833,52.5 231.167,50.5 231.5,48.5C 231.5,47.8333 231.5,47.1667 231.5,46.5C 233.274,45.6304 234.607,44.297 235.5,42.5 Z"/></g>
<g><path style="opacity:1" fill="#974875" d="M 249.5,45.5 C 249.5,45.1667 249.5,44.8333 249.5,44.5C 250.833,44.5 252.167,44.5 253.5,44.5C 254.167,45.1667 254.833,45.8333 255.5,46.5C 253.5,46.1667 251.5,45.8333 249.5,45.5 Z"/></g>
<g><path style="opacity:1" fill="#2f1bcf" d="M 261.5,42.5 C 262.167,42.5 262.833,42.5 263.5,42.5C 264.794,44.3284 265.794,46.3284 266.5,48.5C 265.167,48.5 263.833,48.5 262.5,48.5C 260.228,47.6814 257.894,47.0147 255.5,46.5C 254.833,45.8333 254.167,45.1667 253.5,44.5C 256.826,45.3452 260.16,45.8452 263.5,46C 262.177,45.1841 261.511,44.0174 261.5,42.5 Z"/></g>
<g><path style="opacity:1" fill="#fca70b" d="M 249.5,45.5 C 251.5,45.8333 253.5,46.1667 255.5,46.5C 257.395,48.2413 259.728,49.2413 262.5,49.5C 262.833,49.5 263.167,49.5 263.5,49.5C 263.5,49.8333 263.5,50.1667 263.5,50.5C 264.677,52.0315 266.011,53.5315 267.5,55C 265.829,56.8425 264.829,59.0092 264.5,61.5C 262.194,61.0074 259.861,60.6741 257.5,60.5C 256.833,60.1667 256.167,59.8333 255.5,59.5C 249.45,55.6975 242.784,53.3642 235.5,52.5C 234.551,49.8742 234.551,47.2075 235.5,44.5C 240.193,44.5401 244.859,44.8734 249.5,45.5 Z"/></g>
<g><path style="opacity:1" fill="#a7545f" d="M 255.5,46.5 C 257.894,47.0147 260.228,47.6814 262.5,48.5C 262.5,48.8333 262.5,49.1667 262.5,49.5C 259.728,49.2413 257.395,48.2413 255.5,46.5 Z"/></g>
<g><path style="opacity:1" fill="#251a99" d="M 263.5,42.5 C 266.546,44.2916 269.879,45.2916 273.5,45.5C 277.979,48.3226 280.979,52.3226 282.5,57.5C 281.3,58.2916 279.967,58.2916 278.5,57.5C 276.938,57.2671 275.605,56.6005 274.5,55.5C 272.853,53.6736 270.853,52.3403 268.5,51.5C 267.833,51.5 267.167,51.5 266.5,51.5C 266.027,50.0937 265.027,49.427 263.5,49.5C 263.167,49.5 262.833,49.5 262.5,49.5C 262.5,49.1667 262.5,48.8333 262.5,48.5C 263.833,48.5 265.167,48.5 266.5,48.5C 265.794,46.3284 264.794,44.3284 263.5,42.5 Z"/></g>
<g><path style="opacity:1" fill="#ad575f" d="M 263.5,50.5 C 263.5,50.1667 263.5,49.8333 263.5,49.5C 265.027,49.427 266.027,50.0937 266.5,51.5C 265.391,51.4431 264.391,51.1098 263.5,50.5 Z"/></g>
<g><path style="opacity:1" fill="#aa5250" d="M 268.5,51.5 C 270.853,52.3403 272.853,53.6736 274.5,55.5C 271.802,55.1551 269.802,53.8218 268.5,51.5 Z"/></g>
<g><path style="opacity:1" fill="#1d1257" d="M 273.5,45.5 C 275.554,45.3653 277.221,46.032 278.5,47.5C 282.854,51.1782 284.854,55.8449 284.5,61.5C 282.938,61.2671 281.605,60.6005 280.5,59.5C 279.5,59.1667 278.833,58.5 278.5,57.5C 279.967,58.2916 281.3,58.2916 282.5,57.5C 280.979,52.3226 277.979,48.3226 273.5,45.5 Z"/></g>
<g><path style="opacity:1" fill="#281ab6" d="M 238.5,55.5 C 239.833,55.5 241.167,55.5 242.5,55.5C 242.833,56.1667 243.167,56.8333 243.5,57.5C 233.731,53.7753 228.564,57.1086 228,67.5C 226.261,69.0429 224.761,70.7096 223.5,72.5C 224.038,70.8828 224.371,69.2161 224.5,67.5C 226.834,65.8243 227.834,63.491 227.5,60.5C 227.5,60.1667 227.5,59.8333 227.5,59.5C 228.391,58.7387 229.058,57.7387 229.5,56.5C 232.428,55.5159 235.428,55.1826 238.5,55.5 Z"/></g>
<g><path style="opacity:1" fill="#776c71" d="M 230.5,54.5 C 233.385,54.1936 236.052,54.5269 238.5,55.5C 235.428,55.1826 232.428,55.5159 229.5,56.5C 229.058,57.7387 228.391,58.7387 227.5,59.5C 227.631,58.6236 227.298,57.9569 226.5,57.5C 224.941,56.9264 223.441,56.2598 222,55.5C 219.725,61.0447 217.225,66.3781 214.5,71.5C 212.777,73.2528 211.277,75.2528 210,77.5C 209.617,76.944 209.117,76.6107 208.5,76.5C 211.965,68.113 215.632,59.7796 219.5,51.5C 220,51.1667 220.5,50.8333 221,50.5C 223.881,52.5239 227.047,53.8573 230.5,54.5 Z"/></g>
<g><path style="opacity:1" fill="#893878" d="M 242.5,55.5 C 244.403,55.7959 246.07,56.4625 247.5,57.5C 246.5,57.5 245.5,57.5 244.5,57.5C 244.167,57.5 243.833,57.5 243.5,57.5C 243.167,56.8333 242.833,56.1667 242.5,55.5 Z"/></g>
<g><path style="opacity:1" fill="#fa8b0d" d="M 263.5,50.5 C 264.391,51.1098 265.391,51.4431 266.5,51.5C 267.167,51.5 267.833,51.5 268.5,51.5C 269.802,53.8218 271.802,55.1551 274.5,55.5C 275.605,56.6005 276.938,57.2671 278.5,57.5C 278.833,58.5 279.5,59.1667 280.5,59.5C 281.63,61.3146 282.296,63.3146 282.5,65.5C 282.204,67.403 281.537,69.0697 280.5,70.5C 279.417,70.5394 278.417,70.8728 277.5,71.5C 276.378,70.3698 275.044,69.7031 273.5,69.5C 272.126,65.8132 269.459,64.1466 265.5,64.5C 265.737,63.209 265.404,62.209 264.5,61.5C 264.829,59.0092 265.829,56.8425 267.5,55C 266.011,53.5315 264.677,52.0315 263.5,50.5 Z"/></g>
<g><path style="opacity:1" fill="#904576" d="M 254.5,59.5 C 254.833,59.5 255.167,59.5 255.5,59.5C 256.167,59.8333 256.833,60.1667 257.5,60.5C 257.5,60.8333 257.5,61.1667 257.5,61.5C 255.973,61.573 254.973,60.9063 254.5,59.5 Z"/></g>
<g><path style="opacity:1" fill="#aa4f36" d="M 280.5,59.5 C 281.605,60.6005 282.938,61.2671 284.5,61.5C 284.34,63.153 283.674,64.4863 282.5,65.5C 282.296,63.3146 281.63,61.3146 280.5,59.5 Z"/></g>
<g><path style="opacity:1" fill="#d57435" d="M 257.5,61.5 C 257.5,61.1667 257.5,60.8333 257.5,60.5C 259.861,60.6741 262.194,61.0074 264.5,61.5C 265.404,62.209 265.737,63.209 265.5,64.5C 269.459,64.1466 272.126,65.8132 273.5,69.5C 270.406,67.4181 267.072,65.7514 263.5,64.5C 261.819,62.9925 259.819,61.9925 257.5,61.5 Z"/></g>
<g><path style="opacity:0.992" fill="#151264" d="M 227.5,60.5 C 227.834,63.491 226.834,65.8243 224.5,67.5C 224.935,64.8427 225.935,62.5093 227.5,60.5 Z"/></g>
<g><path style="opacity:1" fill="#301a98" d="M 263.5,64.5 C 267.072,65.7514 270.406,67.4181 273.5,69.5C 274.167,70.5 274.833,71.5 275.5,72.5C 273.508,72.6715 271.842,72.0049 270.5,70.5C 269.485,73.1677 267.818,73.8344 265.5,72.5C 266.747,70.677 267.414,68.677 267.5,66.5C 265.517,66.8432 264.183,66.1765 263.5,64.5 Z"/></g>
<g><path style="opacity:1" fill="#b95b35" d="M 273.5,69.5 C 275.044,69.7031 276.378,70.3698 277.5,71.5C 278.417,70.8728 279.417,70.5394 280.5,70.5C 280.34,72.153 279.674,73.4863 278.5,74.5C 277.5,73.8333 276.5,73.1667 275.5,72.5C 274.833,71.5 274.167,70.5 273.5,69.5 Z"/></g>
<g><path style="opacity:0.89" fill="#161168" d="M 224.5,67.5 C 224.371,69.2161 224.038,70.8828 223.5,72.5C 220.051,80.3941 216.384,88.0608 212.5,95.5C 215.542,85.6916 219.542,76.3583 224.5,67.5 Z"/></g>
<g><path style="opacity:0.471" fill="#5a5353" d="M 231.5,46.5 C 231.5,47.1667 231.5,47.8333 231.5,48.5C 228.145,46.3811 224.479,45.0478 220.5,44.5C 218.626,44.3898 217.126,45.0564 216,46.5C 208.952,65.0355 201.452,83.3688 193.5,101.5C 193.167,101.5 192.833,101.5 192.5,101.5C 199.704,82.7523 207.204,64.0856 215,45.5C 216.182,43.6431 217.849,42.6431 220,42.5C 224.006,43.4238 227.839,44.7571 231.5,46.5 Z"/></g>
<g><path style="opacity:1" fill="#c0b7b5" d="M 231.5,48.5 C 231.167,50.5 230.833,52.5 230.5,54.5C 227.047,53.8573 223.881,52.5239 221,50.5C 220.5,50.8333 220,51.1667 219.5,51.5C 215.632,59.7796 211.965,68.113 208.5,76.5C 208.5,77.1667 208.5,77.8333 208.5,78.5C 204.415,85.725 201.082,93.3917 198.5,101.5C 196.833,102.833 195.167,102.833 193.5,101.5C 201.452,83.3688 208.952,65.0355 216,46.5C 217.126,45.0564 218.626,44.3898 220.5,44.5C 224.479,45.0478 228.145,46.3811 231.5,48.5 Z"/></g>
<g><path style="opacity:1" fill="#1b1677" d="M 275.5,72.5 C 276.5,73.1667 277.5,73.8333 278.5,74.5C 276.926,80.2418 274.593,85.5751 271.5,90.5C 271.337,88.1432 271.503,85.8098 272,83.5C 273.94,80.0724 275.106,76.4058 275.5,72.5 Z"/></g>
<g><path style="opacity:1" fill="#151ab3" d="M 244.5,57.5 C 245.5,57.5 246.5,57.5 247.5,57.5C 249.746,58.4552 252.079,59.1218 254.5,59.5C 254.973,60.9063 255.973,61.573 257.5,61.5C 259.819,61.9925 261.819,62.9925 263.5,64.5C 264.183,66.1765 265.517,66.8432 267.5,66.5C 267.414,68.677 266.747,70.677 265.5,72.5C 267.818,73.8344 269.485,73.1677 270.5,70.5C 271.842,72.0049 273.508,72.6715 275.5,72.5C 275.106,76.4058 273.94,80.0724 272,83.5C 271.503,85.8098 271.337,88.1432 271.5,90.5C 269.707,92.4261 268.707,94.7594 268.5,97.5C 264.823,99.3493 262.99,102.349 263,106.5C 261.667,107.167 260.333,107.833 259,108.5C 258.764,110.811 257.931,112.811 256.5,114.5C 255.5,114.833 254.833,115.5 254.5,116.5C 250.765,116.266 247.432,117.266 244.5,119.5C 242.827,117.914 240.827,117.247 238.5,117.5C 236.973,117.573 235.973,116.906 235.5,115.5C 238.374,117.258 240.541,116.592 242,113.5C 248.699,97.8703 254.865,82.037 260.5,66C 259.978,65.0497 259.311,64.2164 258.5,63.5C 255.721,62.6112 253.055,61.4445 250.5,60C 248.559,59.2571 246.726,59.4238 245,60.5C 244.517,59.552 244.351,58.552 244.5,57.5 Z"/></g>
<g><path style="opacity:0.933" fill="#845e4d" d="M 130.5,93.5 C 124.148,88.6864 117.148,84.8531 109.5,82C 100.561,79.8411 91.7281,80.0077 83,82.5C 82.5357,81.9056 82.369,81.2389 82.5,80.5C 101.196,75.5475 117.196,79.8808 130.5,93.5 Z"/></g>
<g><path style="opacity:1" fill="#847b7c" d="M 208.5,78.5 C 209.097,78.7352 209.43,79.2352 209.5,80C 207.193,85.7565 205.193,91.5898 203.5,97.5C 202.609,98.2613 201.942,99.2613 201.5,100.5C 200.675,101.386 199.675,101.719 198.5,101.5C 201.082,93.3917 204.415,85.725 208.5,78.5 Z"/></g>
<g><path style="opacity:1" fill="#cea88c" d="M 127.5,116.5 C 125.166,110.671 121.5,105.837 116.5,102C 112.5,99.3333 108.5,96.6667 104.5,94C 86.1405,86.8386 71.1405,91.3386 59.5,107.5C 58.1711,110.158 56.8378,112.824 55.5,115.5C 55.6236,116.107 55.9569,116.44 56.5,116.5C 55.8902,117.391 55.5569,118.391 55.5,119.5C 55.6716,120.492 55.3382,121.158 54.5,121.5C 53.3871,120.054 53.2204,118.387 54,116.5C 57.6872,106.654 63.1872,97.9869 70.5,90.5C 76.3186,86.9496 82.6519,84.4496 89.5,83C 100.412,81.9706 110.079,84.9706 118.5,92C 124.975,97.4661 130.308,103.799 134.5,111C 132.638,113.354 130.305,115.187 127.5,116.5 Z"/></g>
<g><path style="opacity:0.404" fill="#52484e" d="M 214.5,71.5 C 211.345,80.4655 207.679,89.1322 203.5,97.5C 205.193,91.5898 207.193,85.7565 209.5,80C 209.43,79.2352 209.097,78.7352 208.5,78.5C 208.5,77.8333 208.5,77.1667 208.5,76.5C 209.117,76.6107 209.617,76.944 210,77.5C 211.277,75.2528 212.777,73.2528 214.5,71.5 Z"/></g>
<g><path style="opacity:1" fill="#b8856a" d="M 82.5,80.5 C 82.369,81.2389 82.5357,81.9056 83,82.5C 91.7281,80.0077 100.561,79.8411 109.5,82C 117.148,84.8531 124.148,88.6864 130.5,93.5C 134.557,97.9264 137.89,102.926 140.5,108.5C 139.23,109.288 138.23,110.288 137.5,111.5C 134.011,114.137 130.345,116.637 126.5,119C 122.964,122.704 119.298,126.204 115.5,129.5C 117.579,125.665 120.412,122.331 124,119.5C 122.912,113.374 119.412,109.041 113.5,106.5C 112.076,104.709 110.742,102.875 109.5,101C 106.761,99.9741 104.428,98.4741 102.5,96.5C 112.586,100.244 120.252,106.91 125.5,116.5C 126.257,117.773 126.923,117.773 127.5,116.5C 130.305,115.187 132.638,113.354 134.5,111C 130.308,103.799 124.975,97.4661 118.5,92C 110.079,84.9706 100.412,81.9706 89.5,83C 82.6519,84.4496 76.3186,86.9496 70.5,90.5C 74.0532,87.242 77.7199,84.242 81.5,81.5C 81.5,80.8333 81.8333,80.5 82.5,80.5 Z"/></g>
<g><path style="opacity:0.545" fill="#090c4e" d="M 271.5,90.5 C 271.293,93.2406 270.293,95.5739 268.5,97.5C 268.707,94.7594 269.707,92.4261 271.5,90.5 Z"/></g>
<g><path style="opacity:1" fill="#171bf9" d="M 243.5,57.5 C 243.833,57.5 244.167,57.5 244.5,57.5C 244.351,58.552 244.517,59.552 245,60.5C 246.726,59.4238 248.559,59.2571 250.5,60C 253.055,61.4445 255.721,62.6112 258.5,63.5C 259.311,64.2164 259.978,65.0497 260.5,66C 254.865,82.037 248.699,97.8703 242,113.5C 240.541,116.592 238.374,117.258 235.5,115.5C 234.833,115.5 234.167,115.5 233.5,115.5C 232.198,113.178 230.198,111.845 227.5,111.5C 225.685,110.37 223.685,109.704 221.5,109.5C 221.389,108.883 221.056,108.383 220.5,108C 217.454,107.261 214.454,106.428 211.5,105.5C 211.077,104.735 210.743,103.902 210.5,103C 211.479,100.567 212.145,98.0667 212.5,95.5C 216.384,88.0608 220.051,80.3941 223.5,72.5C 224.761,70.7096 226.261,69.0429 228,67.5C 228.564,57.1086 233.731,53.7753 243.5,57.5 Z"/></g>
<g><path style="opacity:1" fill="#e3c1ab" d="M 127.5,116.5 C 126.923,117.773 126.257,117.773 125.5,116.5C 120.252,106.91 112.586,100.244 102.5,96.5C 95.2881,92.4951 87.6214,91.6617 79.5,94C 76.7613,95.0259 74.428,96.5259 72.5,98.5C 65.4192,102.916 60.0858,108.916 56.5,116.5C 55.9569,116.44 55.6236,116.107 55.5,115.5C 56.8378,112.824 58.1711,110.158 59.5,107.5C 71.1405,91.3386 86.1405,86.8386 104.5,94C 108.5,96.6667 112.5,99.3333 116.5,102C 121.5,105.837 125.166,110.671 127.5,116.5 Z"/></g>
<g><path style="opacity:1" fill="#aa7165" d="M 102.5,96.5 C 92.2116,93.343 82.2116,94.0097 72.5,98.5C 74.428,96.5259 76.7613,95.0259 79.5,94C 87.6214,91.6617 95.2881,92.4951 102.5,96.5 Z"/></g>
<g><path style="opacity:1" fill="#180d75" d="M 212.5,95.5 C 212.145,98.0667 211.479,100.567 210.5,103C 210.743,103.902 211.077,104.735 211.5,105.5C 210.833,105.5 210.167,105.5 209.5,105.5C 209.5,104.5 209.5,103.5 209.5,102.5C 209.707,99.7594 210.707,97.4261 212.5,95.5 Z"/></g>
<g><path style="opacity:1" fill="#d0a88c" d="M 209.5,105.5 C 210.167,105.5 210.833,105.5 211.5,105.5C 213.612,107.771 216.279,109.104 219.5,109.5C 220.436,110.974 221.77,111.974 223.5,112.5C 229.608,117.383 234.274,123.383 237.5,130.5C 236.957,131.864 236.79,133.197 237,134.5C 239.266,130.958 241.766,127.625 244.5,124.5C 244.833,124.5 245.167,124.5 245.5,124.5C 247.924,123.97 250.257,123.136 252.5,122C 268.949,110.307 287.282,105.974 307.5,109C 327.787,115.786 341.12,129.286 347.5,149.5C 348.874,153.588 349.541,157.921 349.5,162.5C 349.016,172.407 347.349,182.074 344.5,191.5C 342.277,194.911 339.777,198.244 337,201.5C 336.536,200.906 336.369,200.239 336.5,199.5C 340.369,194.097 343.202,188.097 345,181.5C 347.397,169.329 346.73,157.329 343,145.5C 334.704,127.585 320.537,118.585 300.5,118.5C 281.789,118.609 266.289,125.609 254,139.5C 253.099,142.071 251.766,144.404 250,146.5C 249.337,149.977 248.837,153.477 248.5,157C 259.25,215.159 241.584,261.826 195.5,297C 190.508,299.161 185.841,301.828 181.5,305C 176.414,307.418 171.081,308.918 165.5,309.5C 165.5,310.5 165.5,311.5 165.5,312.5C 164.508,312.328 163.842,312.662 163.5,313.5C 162.833,313.5 162.5,313.167 162.5,312.5C 162.5,311.167 162.5,309.833 162.5,308.5C 160.901,308.768 159.568,308.434 158.5,307.5C 167.186,308.105 174.686,305.438 181,299.5C 182.809,296.036 184.976,292.869 187.5,290C 185.316,287.632 182.649,286.965 179.5,288C 180.833,288.333 182.167,288.667 183.5,289C 184.451,289.718 184.617,290.551 184,291.5C 179.639,296.934 174.139,300.767 167.5,303C 162.743,303.81 158.076,303.476 153.5,302C 150.921,300.924 149.254,299.091 148.5,296.5C 153.299,294.877 157.465,292.21 161,288.5C 164.463,281.61 162.297,277.776 154.5,277C 149.109,276.308 143.775,276.641 138.5,278C 132.336,281.79 132.003,285.956 137.5,290.5C 139.807,293.996 143.14,295.996 147.5,296.5C 147.327,300.658 145.327,303.325 141.5,304.5C 139.167,303.167 136.833,301.833 134.5,300.5C 132.833,299.5 131.5,298.167 130.5,296.5C 130.573,294.973 129.906,293.973 128.5,293.5C 127.241,289.975 125.241,286.975 122.5,284.5C 122.443,283.391 122.11,282.391 121.5,281.5C 122.043,281.44 122.376,281.107 122.5,280.5C 116.376,267.059 110.876,253.726 106,240.5C 105.174,237.207 104.674,233.874 104.5,230.5C 105.5,231.167 106.5,231.833 107.5,232.5C 115.435,240.71 123.268,240.377 131,231.5C 133.555,226.983 135.388,222.316 136.5,217.5C 137.864,208.289 137.698,198.956 136,189.5C 132.489,181.484 126.656,176.15 118.5,173.5C 112.011,174.49 107.178,177.823 104,183.5C 101.999,188.547 100.166,193.547 98.5,198.5C 97.6407,175.949 102.807,154.949 114,135.5C 125.322,119.754 140.489,109.921 159.5,106C 158.552,105.517 157.552,105.351 156.5,105.5C 163.777,104.017 171.277,103.35 179,103.5C 189.208,103.631 199.375,104.297 209.5,105.5 Z"/></g>
<g><path style="opacity:0.937" fill="#826357" d="M 130.5,93.5 C 135.273,96.7764 138.773,101.11 141,106.5C 141.725,107.059 142.558,107.392 143.5,107.5C 159.647,102.412 175.981,100.412 192.5,101.5C 192.833,101.5 193.167,101.5 193.5,101.5C 195.167,102.833 196.833,102.833 198.5,101.5C 199.675,101.719 200.675,101.386 201.5,100.5C 201.942,99.2613 202.609,98.2613 203.5,97.5C 203.528,99.5824 202.861,101.416 201.5,103C 204.463,104.729 207.13,104.562 209.5,102.5C 209.5,103.5 209.5,104.5 209.5,105.5C 199.375,104.297 189.208,103.631 179,103.5C 171.277,103.35 163.777,104.017 156.5,105.5C 150.015,107.038 143.682,109.038 137.5,111.5C 138.23,110.288 139.23,109.288 140.5,108.5C 137.89,102.926 134.557,97.9264 130.5,93.5 Z"/></g>
<g><path style="opacity:1" fill="#c08079" d="M 72.5,98.5 C 70.8564,100.481 69.1897,102.481 67.5,104.5C 67.9569,105.298 68.6236,105.631 69.5,105.5C 64.5,109.833 59.8333,114.5 55.5,119.5C 55.5569,118.391 55.8902,117.391 56.5,116.5C 60.0858,108.916 65.4192,102.916 72.5,98.5 Z"/></g>
<g><path style="opacity:1" fill="#6e4f93" d="M 211.5,105.5 C 214.454,106.428 217.454,107.261 220.5,108C 221.056,108.383 221.389,108.883 221.5,109.5C 220.833,109.5 220.167,109.5 219.5,109.5C 216.279,109.104 213.612,107.771 211.5,105.5 Z"/></g>
<g><path style="opacity:1" fill="#debca9" d="M 283.5,106.5 C 311.864,103.26 332.364,114.26 345,139.5C 346.352,142.72 347.186,146.053 347.5,149.5C 341.12,129.286 327.787,115.786 307.5,109C 287.282,105.974 268.949,110.307 252.5,122C 250.257,123.136 247.924,123.97 245.5,124.5C 248.167,122.167 250.833,119.833 253.5,117.5C 253.833,117.5 254.167,117.5 254.5,117.5C 263.698,112.457 273.365,108.79 283.5,106.5 Z"/></g>
<g><path style="opacity:1" fill="#1b1b82" d="M 268.5,97.5 C 267.111,101.944 265.444,106.277 263.5,110.5C 261.664,112.588 259.331,113.921 256.5,114.5C 257.931,112.811 258.764,110.811 259,108.5C 260.333,107.833 261.667,107.167 263,106.5C 262.99,102.349 264.823,99.3493 268.5,97.5 Z"/></g>
<g><path style="opacity:0.757" fill="#7e6155" d="M 283.5,106.5 C 313.359,101.513 334.526,112.846 347,140.5C 351.64,156.158 351.64,171.825 347,187.5C 346.392,189.066 345.558,190.4 344.5,191.5C 347.349,182.074 349.016,172.407 349.5,162.5C 349.541,157.921 348.874,153.588 347.5,149.5C 347.186,146.053 346.352,142.72 345,139.5C 332.364,114.26 311.864,103.26 283.5,106.5 Z"/></g>
<g><path style="opacity:1" fill="#f9c1c5" d="M 110.5,136.5 C 109.247,140.611 107.247,144.277 104.5,147.5C 100.857,155.77 98.1901,164.436 96.5,173.5C 93.6884,175.076 91.0217,176.91 88.5,179C 83.7163,181.032 78.7163,181.866 73.5,181.5C 65.5863,176.072 60.0863,168.739 57,159.5C 53.4928,146.993 52.6595,134.327 54.5,121.5C 55.3382,121.158 55.6716,120.492 55.5,119.5C 59.8333,114.5 64.5,109.833 69.5,105.5C 87.9509,97.0441 100.784,102.377 108,121.5C 109.895,126.325 110.728,131.325 110.5,136.5 Z"/></g>
<g><path style="opacity:1" fill="#9e7880" d="M 219.5,109.5 C 220.167,109.5 220.833,109.5 221.5,109.5C 223.685,109.704 225.685,110.37 227.5,111.5C 228.1,112.9 229.1,113.9 230.5,114.5C 228.071,114.116 225.737,113.449 223.5,112.5C 221.77,111.974 220.436,110.974 219.5,109.5 Z"/></g>
<g><path style="opacity:0.98" fill="#806663" d="M 283.5,106.5 C 273.365,108.79 263.698,112.457 254.5,117.5C 254.5,117.167 254.5,116.833 254.5,116.5C 254.833,115.5 255.5,114.833 256.5,114.5C 259.331,113.921 261.664,112.588 263.5,110.5C 270.108,108.848 276.775,107.514 283.5,106.5 Z"/></g>
<g><path style="opacity:1" fill="#6d4f91" d="M 227.5,111.5 C 230.198,111.845 232.198,113.178 233.5,115.5C 232.391,115.443 231.391,115.11 230.5,114.5C 229.1,113.9 228.1,112.9 227.5,111.5 Z"/></g>
<g><path style="opacity:1" fill="#e58d8f" d="M 102.5,96.5 C 104.428,98.4741 106.761,99.9741 109.5,101C 110.742,102.875 112.076,104.709 113.5,106.5C 119.412,109.041 122.912,113.374 124,119.5C 120.412,122.331 117.579,125.665 115.5,129.5C 114.214,132.117 112.547,134.45 110.5,136.5C 110.728,131.325 109.895,126.325 108,121.5C 100.784,102.377 87.9509,97.0441 69.5,105.5C 68.6236,105.631 67.9569,105.298 67.5,104.5C 69.1897,102.481 70.8564,100.481 72.5,98.5C 82.2116,94.0097 92.2116,93.343 102.5,96.5 Z"/></g>
<g><path style="opacity:1" fill="#e4c2ad" d="M 156.5,105.5 C 157.552,105.351 158.552,105.517 159.5,106C 140.489,109.921 125.322,119.754 114,135.5C 102.807,154.949 97.6407,175.949 98.5,198.5C 98.239,205.072 98.9057,211.406 100.5,217.5C 100.833,217.5 101.167,217.5 101.5,217.5C 101.111,220.553 101.777,223.22 103.5,225.5C 103.629,227.216 103.962,228.883 104.5,230.5C 104.674,233.874 105.174,237.207 106,240.5C 110.876,253.726 116.376,267.059 122.5,280.5C 122.376,281.107 122.043,281.44 121.5,281.5C 103.786,250.182 95.619,216.516 97,180.5C 98.4333,169.221 100.933,158.221 104.5,147.5C 107.247,144.277 109.247,140.611 110.5,136.5C 112.547,134.45 114.214,132.117 115.5,129.5C 119.298,126.204 122.964,122.704 126.5,119C 130.345,116.637 134.011,114.137 137.5,111.5C 143.682,109.038 150.015,107.038 156.5,105.5 Z"/></g>
<g><path style="opacity:1" fill="#b8876a" d="M 223.5,112.5 C 225.737,113.449 228.071,114.116 230.5,114.5C 231.391,115.11 232.391,115.443 233.5,115.5C 234.167,115.5 234.833,115.5 235.5,115.5C 235.973,116.906 236.973,117.573 238.5,117.5C 239.833,118.833 241.167,120.167 242.5,121.5C 242.932,122.71 243.599,123.71 244.5,124.5C 241.766,127.625 239.266,130.958 237,134.5C 236.79,133.197 236.957,131.864 237.5,130.5C 234.274,123.383 229.608,117.383 223.5,112.5 Z"/></g>
<g><path style="opacity:1" fill="#2c228d" d="M 254.5,116.5 C 254.5,116.833 254.5,117.167 254.5,117.5C 254.167,117.5 253.833,117.5 253.5,117.5C 251.391,118.391 249.391,119.558 247.5,121C 245.866,121.494 244.199,121.66 242.5,121.5C 241.167,120.167 239.833,118.833 238.5,117.5C 240.827,117.247 242.827,117.914 244.5,119.5C 247.432,117.266 250.765,116.266 254.5,116.5 Z"/></g>
<g><path style="opacity:1" fill="#7f6578" d="M 253.5,117.5 C 250.833,119.833 248.167,122.167 245.5,124.5C 245.167,124.5 244.833,124.5 244.5,124.5C 243.599,123.71 242.932,122.71 242.5,121.5C 244.199,121.66 245.866,121.494 247.5,121C 249.391,119.558 251.391,118.391 253.5,117.5 Z"/></g>
<g><path style="opacity:1" fill="#e68c8e" d="M 340.5,147.5 C 341.807,152.066 342.474,156.733 342.5,161.5C 335.783,139.144 321.45,132.311 299.5,141C 289.604,150.348 283.77,161.848 282,175.5C 281.141,185.219 281.474,194.885 283,204.5C 286.117,216.132 293.617,221.799 305.5,221.5C 303.371,222.203 301.371,223.203 299.5,224.5C 296.829,226.118 293.829,226.785 290.5,226.5C 284.463,226.829 278.463,226.496 272.5,225.5C 274.312,222.397 275.312,219.064 275.5,215.5C 281.198,197.93 280.531,180.597 273.5,163.5C 271.19,155.213 267.523,147.546 262.5,140.5C 263.313,139.186 264.313,138.019 265.5,137C 270.192,134.065 274.858,131.231 279.5,128.5C 292.063,125.291 304.73,124.791 317.5,127C 328.173,130.509 335.84,137.343 340.5,147.5 Z"/></g>
<g><path style="opacity:0.331" fill="#8a5f59" d="M 81.5,81.5 C 77.7199,84.242 74.0532,87.242 70.5,90.5C 63.1872,97.9869 57.6872,106.654 54,116.5C 53.2204,118.387 53.3871,120.054 54.5,121.5C 52.6595,134.327 53.4928,146.993 57,159.5C 60.0863,168.739 65.5863,176.072 73.5,181.5C 76.5961,183.715 79.9295,185.381 83.5,186.5C 79.1869,186.452 75.1869,185.285 71.5,183C 57.6243,169.727 50.9577,153.394 51.5,134C 51.0697,123.996 52.903,114.496 57,105.5C 61.0703,98.7598 65.9036,92.5931 71.5,87C 74.406,84.3805 77.7393,82.5472 81.5,81.5 Z"/></g>
<g><path style="opacity:1" fill="#f9c1c6" d="M 342.5,161.5 C 344.773,174.808 342.773,187.475 336.5,199.5C 328.54,209.997 318.207,217.33 305.5,221.5C 293.617,221.799 286.117,216.132 283,204.5C 281.474,194.885 281.141,185.219 282,175.5C 283.77,161.848 289.604,150.348 299.5,141C 321.45,132.311 335.783,139.144 342.5,161.5 Z"/></g>
<g><path style="opacity:1" fill="#160e0a" d="M 205.5,168.5 C 206.625,167.348 206.625,166.348 205.5,165.5C 211.54,162.33 216.707,163.663 221,169.5C 222.914,172.298 223.914,175.298 224,178.5C 219.44,172.137 213.273,168.804 205.5,168.5 Z"/></g>
<g><path style="opacity:1" fill="#a46552" d="M 273.5,163.5 C 280.531,180.597 281.198,197.93 275.5,215.5C 278.623,198.005 277.957,180.671 273.5,163.5 Z"/></g>
<g><path style="opacity:1" fill="#463728" d="M 205.5,165.5 C 206.625,166.348 206.625,167.348 205.5,168.5C 204.329,169.345 202.995,170.011 201.5,170.5C 201.167,170.5 200.833,170.5 200.5,170.5C 201.189,167.811 202.856,166.144 205.5,165.5 Z"/></g>
<g><path style="opacity:1" fill="#190e09" d="M 111.5,164.5 C 117.155,164.054 120.655,166.387 122,171.5C 118.744,169.571 115.244,169.071 111.5,170C 108.37,172.128 105.537,174.628 103,177.5C 103.797,171.923 106.63,167.59 111.5,164.5 Z"/></g>
<g><path style="opacity:1" fill="#b88b6e" d="M 136.5,217.5 C 136.665,214.482 136.498,211.482 136,208.5C 135.809,210.708 135.309,212.708 134.5,214.5C 134.5,211.833 134.5,209.167 134.5,206.5C 135.124,206.083 135.457,205.416 135.5,204.5C 134.622,201.87 133.955,199.203 133.5,196.5C 130.135,185.318 122.802,181.151 111.5,184C 107.642,187.549 104.642,191.715 102.5,196.5C 102.624,197.107 102.957,197.44 103.5,197.5C 100.965,203.889 99.9646,210.556 100.5,217.5C 98.9057,211.406 98.239,205.072 98.5,198.5C 100.166,193.547 101.999,188.547 104,183.5C 107.178,177.823 112.011,174.49 118.5,173.5C 126.656,176.15 132.489,181.484 136,189.5C 137.698,198.956 137.864,208.289 136.5,217.5 Z"/></g>
<g><path style="opacity:1" fill="#ba8a6c" d="M 200.5,170.5 C 200.833,170.5 201.167,170.5 201.5,170.5C 201.389,171.117 201.056,171.617 200.5,172C 202.286,172.785 203.786,173.951 205,175.5C 206.487,174.747 206.654,173.914 205.5,173C 210.36,172.508 214.694,173.842 218.5,177C 230.574,191.199 233.574,207.033 227.5,224.5C 228.002,217.318 227.335,210.318 225.5,203.5C 226.105,200.082 225.271,196.749 223,193.5C 217.871,183.961 210.038,180.294 199.5,182.5C 195.152,177.862 196.152,175.862 202.5,176.5C 201.675,175.614 200.675,175.281 199.5,175.5C 199.216,173.585 199.549,171.919 200.5,170.5 Z"/></g>
<g><path style="opacity:1" fill="#dbc1b0" d="M 133.5,196.5 C 131.639,193.978 129.639,191.478 127.5,189C 116.553,183.15 108.553,185.984 103.5,197.5C 102.957,197.44 102.624,197.107 102.5,196.5C 104.642,191.715 107.642,187.549 111.5,184C 122.802,181.151 130.135,185.318 133.5,196.5 Z"/></g>
<g><path style="opacity:1" fill="#e48c8f" d="M 96.5,173.5 C 95.6403,177.434 95.307,181.434 95.5,185.5C 91.5341,186.162 87.5341,186.495 83.5,186.5C 79.9295,185.381 76.5961,183.715 73.5,181.5C 78.7163,181.866 83.7163,181.032 88.5,179C 91.0217,176.91 93.6884,175.076 96.5,173.5 Z"/></g>
<g><path style="opacity:1" fill="#d8bead" d="M 225.5,203.5 C 220.351,187.256 210.018,182.423 194.5,189C 190.704,192.107 188.037,195.94 186.5,200.5C 185.903,200.265 185.57,199.765 185.5,199C 186.391,196.721 187.391,194.554 188.5,192.5C 189.131,190.552 190.131,188.719 191.5,187C 194.391,185.726 197.058,184.226 199.5,182.5C 210.038,180.294 217.871,183.961 223,193.5C 225.271,196.749 226.105,200.082 225.5,203.5 Z"/></g>
<g><path style="opacity:1" fill="#f4f5f4" d="M 134.5,206.5 C 134.5,209.167 134.5,211.833 134.5,214.5C 134.5,215.167 134.5,215.833 134.5,216.5C 133.152,219.492 131.652,222.492 130,225.5C 129.601,225.272 129.435,224.938 129.5,224.5C 130.833,218.833 130.833,213.167 129.5,207.5C 127.706,205.203 125.706,203.037 123.5,201C 121.613,200.22 119.946,200.387 118.5,201.5C 114.847,202.989 112.347,205.656 111,209.5C 108.955,217.497 110.788,224.331 116.5,230C 118.345,231.128 120.345,231.628 122.5,231.5C 118.075,233.027 113.742,232.527 109.5,230C 107.636,227.312 105.636,224.812 103.5,222.5C 102.976,220.694 102.309,219.028 101.5,217.5C 99.9835,205.518 103.984,196.018 113.5,189C 125.988,187.972 132.988,193.805 134.5,206.5 Z"/></g>
<g><path style="opacity:1" fill="#f8f8f8" d="M 225.5,209.5 C 226.098,215.901 224.932,221.901 222,227.5C 221.51,226.207 221.343,224.873 221.5,223.5C 221.731,219.007 221.064,214.674 219.5,210.5C 217.363,207.027 214.363,204.694 210.5,203.5C 204.102,202.949 199.602,205.616 197,211.5C 194.408,219.664 195.408,227.331 200,234.5C 202.651,237.076 205.818,238.409 209.5,238.5C 203.026,240.588 197.193,239.255 192,234.5C 189.56,231.272 187.394,227.939 185.5,224.5C 185.768,222.901 185.434,221.568 184.5,220.5C 182.87,206.256 188.204,195.756 200.5,189C 215.241,187.9 223.574,194.733 225.5,209.5 Z"/></g>
<g><path style="opacity:1" fill="#261e19" d="M 133.5,196.5 C 133.955,199.203 134.622,201.87 135.5,204.5C 135.457,205.416 135.124,206.083 134.5,206.5C 132.988,193.805 125.988,187.972 113.5,189C 103.984,196.018 99.9835,205.518 101.5,217.5C 101.167,217.5 100.833,217.5 100.5,217.5C 99.9646,210.556 100.965,203.889 103.5,197.5C 108.553,185.984 116.553,183.15 127.5,189C 129.639,191.478 131.639,193.978 133.5,196.5 Z"/></g>
<g><path style="opacity:1" fill="#1c1714" d="M 225.5,203.5 C 227.335,210.318 228.002,217.318 227.5,224.5C 226.797,226.629 225.797,228.629 224.5,230.5C 226.243,223.403 226.577,216.403 225.5,209.5C 223.574,194.733 215.241,187.9 200.5,189C 188.204,195.756 182.87,206.256 184.5,220.5C 183.323,218.253 183.156,213.92 184,207.5C 184.379,204.97 185.213,202.637 186.5,200.5C 188.037,195.94 190.704,192.107 194.5,189C 210.018,182.423 220.351,187.256 225.5,203.5 Z"/></g>
<g><path style="opacity:1" fill="#0f0a09" d="M 118.5,201.5 C 119.873,201.343 121.207,201.51 122.5,202C 119.334,207.519 121.001,209.852 127.5,209C 128.044,208.283 128.711,207.783 129.5,207.5C 130.833,213.167 130.833,218.833 129.5,224.5C 128.442,225.6 127.608,226.934 127,228.5C 125.348,229.399 123.848,230.399 122.5,231.5C 120.345,231.628 118.345,231.128 116.5,230C 110.788,224.331 108.955,217.497 111,209.5C 112.347,205.656 114.847,202.989 118.5,201.5 Z"/></g>
<g><path style="opacity:1" fill="#0f0a09" d="M 210.5,203.5 C 207.357,208.231 208.523,211.564 214,213.5C 216.085,212.876 217.918,211.876 219.5,210.5C 221.064,214.674 221.731,219.007 221.5,223.5C 220.513,230.829 216.513,235.829 209.5,238.5C 205.818,238.409 202.651,237.076 200,234.5C 195.408,227.331 194.408,219.664 197,211.5C 199.602,205.616 204.102,202.949 210.5,203.5 Z"/></g>
<g><path style="opacity:1" fill="#949494" d="M 118.5,201.5 C 119.946,200.387 121.613,200.22 123.5,201C 125.706,203.037 127.706,205.203 129.5,207.5C 128.711,207.783 128.044,208.283 127.5,209C 121.001,209.852 119.334,207.519 122.5,202C 121.207,201.51 119.873,201.343 118.5,201.5 Z"/></g>
<g><path style="opacity:1" fill="#969696" d="M 210.5,203.5 C 214.363,204.694 217.363,207.027 219.5,210.5C 217.918,211.876 216.085,212.876 214,213.5C 208.523,211.564 207.357,208.231 210.5,203.5 Z"/></g>
<g><path style="opacity:1" fill="#c9ced0" d="M 119.5,212.5 C 121.337,212.639 121.67,213.306 120.5,214.5C 119.702,214.043 119.369,213.376 119.5,212.5 Z"/></g>
<g><path style="opacity:0.278" fill="#866659" d="M 104.5,147.5 C 100.933,158.221 98.4333,169.221 97,180.5C 95.619,216.516 103.786,250.182 121.5,281.5C 122.11,282.391 122.443,283.391 122.5,284.5C 121.406,283.418 120.073,282.752 118.5,282.5C 108.56,286.607 101.393,293.607 97,303.5C 95.4417,307.007 94.6084,310.673 94.5,314.5C 95.7316,320.263 96.3983,326.096 96.5,332C 95.5789,340.182 94.5789,348.348 93.5,356.5C 95.1667,356.5 96.8333,356.5 98.5,356.5C 98.5,356.833 98.5,357.167 98.5,357.5C 97.8333,358.167 97.1667,358.833 96.5,359.5C 93.0649,358.511 91.7315,356.178 92.5,352.5C 93.4366,345.985 94.4366,339.485 95.5,333C 89.1105,308.96 96.7772,291.127 118.5,279.5C 103.446,250.333 95.1126,219.333 93.5,186.5C 90.0334,187.788 86.7001,187.788 83.5,186.5C 87.5341,186.495 91.5341,186.162 95.5,185.5C 95.307,181.434 95.6403,177.434 96.5,173.5C 98.1901,164.436 100.857,155.77 104.5,147.5 Z"/></g>
<g><path style="opacity:1" fill="#b08a72" d="M 188.5,192.5 C 187.391,194.554 186.391,196.721 185.5,199C 185.57,199.765 185.903,200.265 186.5,200.5C 185.213,202.637 184.379,204.97 184,207.5C 183.156,213.92 183.323,218.253 184.5,220.5C 185.434,221.568 185.768,222.901 185.5,224.5C 184.566,225.568 184.232,226.901 184.5,228.5C 182.123,224.621 180.957,220.287 181,215.5C 180.333,210.167 180.333,204.833 181,199.5C 183.935,197.625 186.435,195.292 188.5,192.5 Z"/></g>
<g><path style="opacity:1" fill="#f3f4f5" d="M 207.5,216.5 C 209.337,216.639 209.67,217.306 208.5,218.5C 207.702,218.043 207.369,217.376 207.5,216.5 Z"/></g>
<g><path style="opacity:0.404" fill="#916a66" d="M 344.5,191.5 C 344.159,194.516 342.993,197.182 341,199.5C 329.788,212.217 315.955,220.55 299.5,224.5C 301.371,223.203 303.371,222.203 305.5,221.5C 318.207,217.33 328.54,209.997 336.5,199.5C 336.369,200.239 336.536,200.906 337,201.5C 339.777,198.244 342.277,194.911 344.5,191.5 Z"/></g>
<g><path style="opacity:1" fill="#634e43" d="M 101.5,217.5 C 102.309,219.028 102.976,220.694 103.5,222.5C 103.5,223.5 103.5,224.5 103.5,225.5C 101.777,223.22 101.111,220.553 101.5,217.5 Z"/></g>
<g><path style="opacity:1" fill="#574438" d="M 136.5,217.5 C 135.388,222.316 133.555,226.983 131,231.5C 123.268,240.377 115.435,240.71 107.5,232.5C 119.075,240.489 127.575,237.822 133,224.5C 134.079,221.937 134.579,219.271 134.5,216.5C 134.5,215.833 134.5,215.167 134.5,214.5C 135.309,212.708 135.809,210.708 136,208.5C 136.498,211.482 136.665,214.482 136.5,217.5 Z"/></g>
<g><path style="opacity:1" fill="#554436" d="M 103.5,225.5 C 105.083,227.663 106.416,229.996 107.5,232.5C 106.5,231.833 105.5,231.167 104.5,230.5C 103.962,228.883 103.629,227.216 103.5,225.5 Z"/></g>
<g><path style="opacity:1" fill="#49352c" d="M 185.5,224.5 C 186.267,228.698 187.601,232.698 189.5,236.5C 187.32,234.137 185.653,231.47 184.5,228.5C 184.232,226.901 184.566,225.568 185.5,224.5 Z"/></g>
<g><path style="opacity:1" fill="#36211c" d="M 224.5,230.5 C 224.771,232.38 224.104,233.713 222.5,234.5C 222.66,232.847 223.326,231.514 224.5,230.5 Z"/></g>
<g><path style="opacity:1" fill="#a06c5c" d="M 275.5,215.5 C 275.312,219.064 274.312,222.397 272.5,225.5C 278.463,226.496 284.463,226.829 290.5,226.5C 284.644,227.982 278.644,228.482 272.5,228C 270.436,232.066 268.103,235.9 265.5,239.5C 265.489,237.983 264.823,236.816 263.5,236C 265.219,234.13 266.219,231.963 266.5,229.5C 267.822,229.67 268.989,229.337 270,228.5C 271.566,223.944 273.399,219.61 275.5,215.5 Z"/></g>
<g><path style="opacity:1" fill="#c0bcbb" d="M 134.5,216.5 C 134.579,219.271 134.079,221.937 133,224.5C 127.575,237.822 119.075,240.489 107.5,232.5C 106.416,229.996 105.083,227.663 103.5,225.5C 103.5,224.5 103.5,223.5 103.5,222.5C 105.636,224.812 107.636,227.312 109.5,230C 113.742,232.527 118.075,233.027 122.5,231.5C 123.848,230.399 125.348,229.399 127,228.5C 127.608,226.934 128.442,225.6 129.5,224.5C 129.435,224.938 129.601,225.272 130,225.5C 131.652,222.492 133.152,219.492 134.5,216.5 Z"/></g>
<g><path style="opacity:1" fill="#68311f" d="M 116.5,223.5 C 118.89,223.913 121.223,224.579 123.5,225.5C 121.956,227.446 119.956,227.946 117.5,227C 116.663,225.989 116.33,224.822 116.5,223.5 Z"/></g>
<g><path style="opacity:1" fill="#493a30" d="M 189.5,236.5 C 191.833,238.167 193.833,240.167 195.5,242.5C 192.5,241.5 190.5,239.5 189.5,236.5 Z"/></g>
<g><path style="opacity:1" fill="#4d3d32" d="M 222.5,234.5 C 221.569,238.429 219.236,241.095 215.5,242.5C 217.862,239.808 220.196,237.141 222.5,234.5 Z"/></g>
<g><path style="opacity:1" fill="#c0bfbf" d="M 225.5,209.5 C 226.577,216.403 226.243,223.403 224.5,230.5C 223.326,231.514 222.66,232.847 222.5,234.5C 220.196,237.141 217.862,239.808 215.5,242.5C 208.833,245.167 202.167,245.167 195.5,242.5C 193.833,240.167 191.833,238.167 189.5,236.5C 187.601,232.698 186.267,228.698 185.5,224.5C 187.394,227.939 189.56,231.272 192,234.5C 197.193,239.255 203.026,240.588 209.5,238.5C 216.513,235.829 220.513,230.829 221.5,223.5C 221.343,224.873 221.51,226.207 222,227.5C 224.932,221.901 226.098,215.901 225.5,209.5 Z"/></g>
<g><path style="opacity:1" fill="#734027" d="M 201.5,227.5 C 203.736,228.65 206.069,229.65 208.5,230.5C 216.074,229.333 216.074,230.333 208.5,233.5C 204.244,233.56 201.91,231.56 201.5,227.5 Z"/></g>
<g><path style="opacity:1" fill="#5e4c41" d="M 195.5,242.5 C 202.167,245.167 208.833,245.167 215.5,242.5C 210.432,246.534 204.765,247.368 198.5,245C 197.058,244.623 196.058,243.79 195.5,242.5 Z"/></g>
<g><path style="opacity:0.886" fill="#7f5b4a" d="M 257.5,250.5 C 256.419,252.764 255.085,254.931 253.5,257C 265.405,261.944 272.738,270.778 275.5,283.5C 272.481,277.351 268.981,271.351 265,265.5C 261.205,261.684 256.705,259.018 251.5,257.5C 252.808,254.536 254.808,252.203 257.5,250.5 Z"/></g>
<g><path style="opacity:1" fill="#bb8969" d="M 336.5,199.5 C 342.773,187.475 344.773,174.808 342.5,161.5C 342.474,156.733 341.807,152.066 340.5,147.5C 337.088,136.92 330.088,129.753 319.5,126C 305.729,122.095 292.396,122.928 279.5,128.5C 275.638,129.428 271.971,130.928 268.5,133C 265.167,135.667 261.833,138.333 258.5,141C 254.47,145.539 251.47,150.706 249.5,156.5C 249.846,157.696 250.346,157.696 251,156.5C 253.094,150.636 256.428,145.636 261,141.5C 262,142.5 263,143.5 264,144.5C 267.213,150.925 270.379,157.259 273.5,163.5C 277.957,180.671 278.623,198.005 275.5,215.5C 273.399,219.61 271.566,223.944 270,228.5C 268.989,229.337 267.822,229.67 266.5,229.5C 266.219,231.963 265.219,234.13 263.5,236C 264.823,236.816 265.489,237.983 265.5,239.5C 263.6,243.732 260.933,247.399 257.5,250.5C 254.808,252.203 252.808,254.536 251.5,257.5C 256.705,259.018 261.205,261.684 265,265.5C 268.981,271.351 272.481,277.351 275.5,283.5C 276.752,290.424 278.919,297.09 282,303.5C 286.036,307.704 290.202,311.704 294.5,315.5C 298.156,318.803 300.822,322.803 302.5,327.5C 307.804,340.994 309.971,354.994 309,369.5C 308.376,373.829 307.21,377.995 305.5,382C 305.57,382.765 305.903,383.265 306.5,383.5C 306.5,384.167 306.5,384.833 306.5,385.5C 299.981,395.362 292.314,404.362 283.5,412.5C 282.754,413.736 282.421,415.07 282.5,416.5C 281.712,422.085 281.212,427.752 281,433.5C 279.312,437.685 276.479,440.685 272.5,442.5C 271.5,442.5 270.5,442.5 269.5,442.5C 270.014,440.383 270.347,438.216 270.5,436C 268.794,425.812 267.461,415.812 266.5,406C 266.719,401.469 267.219,396.969 268,392.5C 273.052,383.307 274.386,373.64 272,363.5C 268.657,357.828 263.824,353.995 257.5,352C 254.167,351.333 250.833,351.333 247.5,352C 241.597,356.401 236.597,361.568 232.5,367.5C 234.65,363.213 237.317,359.213 240.5,355.5C 238.98,353.338 237.98,351.005 237.5,348.5C 237.185,346.774 237.019,345.107 237,343.5C 243.792,337.714 249.459,331.048 254,323.5C 254.667,322.5 254.667,321.5 254,320.5C 248.932,330.235 241.766,338.068 232.5,344C 231.262,344.69 231.262,345.19 232.5,345.5C 229.466,348.016 226.132,350.016 222.5,351.5C 211.221,353.698 199.888,354.031 188.5,352.5C 189.203,350.284 190.536,348.451 192.5,347C 203.006,346.895 213.34,345.562 223.5,343C 239.435,333.112 244.268,319.278 238,301.5C 235.6,297.313 232.6,296.646 229,299.5C 224.08,307.672 219.413,316.005 215,324.5C 212.063,325.817 209.23,325.817 206.5,324.5C 208.924,324.808 211.257,324.474 213.5,323.5C 216.293,319.385 218.626,315.051 220.5,310.5C 221.623,308.312 221.623,305.979 220.5,303.5C 220.736,298.02 220.903,292.353 221,286.5C 230.426,280.039 238.926,272.539 246.5,264C 246.167,263.833 245.833,263.667 245.5,263.5C 226.58,281.958 205.247,296.958 181.5,308.5C 179.364,309.653 177.364,310.986 175.5,312.5C 177.305,316.773 179.639,320.773 182.5,324.5C 186.783,325.492 191.116,325.826 195.5,325.5C 198.85,325.335 202.183,325.502 205.5,326C 200.845,326.499 196.179,326.666 191.5,326.5C 187.833,326.5 184.167,326.5 180.5,326.5C 178.83,326.249 177.33,325.582 176,324.5C 176.333,322.833 176.667,321.167 177,319.5C 174.293,321.388 171.793,323.388 169.5,325.5C 170.698,322.574 171.698,319.574 172.5,316.5C 173.931,315.22 174.598,313.553 174.5,311.5C 171.455,311.508 168.455,311.841 165.5,312.5C 165.5,311.5 165.5,310.5 165.5,309.5C 171.081,308.918 176.414,307.418 181.5,305C 185.841,301.828 190.508,299.161 195.5,297C 241.584,261.826 259.25,215.159 248.5,157C 248.837,153.477 249.337,149.977 250,146.5C 251.766,144.404 253.099,142.071 254,139.5C 266.289,125.609 281.789,118.609 300.5,118.5C 320.537,118.585 334.704,127.585 343,145.5C 346.73,157.329 347.397,169.329 345,181.5C 343.202,188.097 340.369,194.097 336.5,199.5 Z"/></g>
<g><path style="opacity:1" fill="#a36651" d="M 279.5,128.5 C 274.858,131.231 270.192,134.065 265.5,137C 264.313,138.019 263.313,139.186 262.5,140.5C 267.523,147.546 271.19,155.213 273.5,163.5C 270.379,157.259 267.213,150.925 264,144.5C 263,143.5 262,142.5 261,141.5C 256.428,145.636 253.094,150.636 251,156.5C 250.346,157.696 249.846,157.696 249.5,156.5C 251.47,150.706 254.47,145.539 258.5,141C 261.833,138.333 265.167,135.667 268.5,133C 271.971,130.928 275.638,129.428 279.5,128.5 Z"/></g>
<g><path style="opacity:1" fill="#a46453" d="M 340.5,147.5 C 335.84,137.343 328.173,130.509 317.5,127C 304.73,124.791 292.063,125.291 279.5,128.5C 292.396,122.928 305.729,122.095 319.5,126C 330.088,129.753 337.088,136.92 340.5,147.5 Z"/></g>
<g><path style="opacity:1" fill="#c1837c" d="M 148.5,296.5 C 148.167,296.5 147.833,296.5 147.5,296.5C 143.14,295.996 139.807,293.996 137.5,290.5C 132.003,285.956 132.336,281.79 138.5,278C 143.775,276.641 149.109,276.308 154.5,277C 162.297,277.776 164.463,281.61 161,288.5C 157.465,292.21 153.299,294.877 148.5,296.5 Z"/></g>
<g><path style="opacity:1" fill="#fac1c5" d="M 137.5,290.5 C 136.385,288.693 135.719,286.693 135.5,284.5C 135.39,282.626 136.056,281.126 137.5,280C 143.749,278.464 150.083,278.13 156.5,279C 159.304,284.615 157.97,289.282 152.5,293C 149.594,294.318 146.594,294.652 143.5,294C 141.595,292.579 139.595,291.412 137.5,290.5 Z"/></g>
<g><path style="opacity:1" fill="#4b3779" d="M 128.5,293.5 C 129.906,293.973 130.573,294.973 130.5,296.5C 130.167,296.5 129.833,296.5 129.5,296.5C 128.597,294.38 127.263,294.046 125.5,295.5C 125.821,293.952 126.821,293.285 128.5,293.5 Z"/></g>
<g><path style="opacity:1" fill="#cda489" d="M 122.5,284.5 C 123.086,286.84 124.086,289.007 125.5,291C 123.017,293.406 120.35,295.573 117.5,297.5C 116.112,300.53 114.779,303.53 113.5,306.5C 114.278,309.609 116.278,311.276 119.5,311.5C 120.568,312.434 121.901,312.768 123.5,312.5C 126.979,313.018 130.312,314.018 133.5,315.5C 135.85,317.213 136.85,319.547 136.5,322.5C 136.5,322.833 136.5,323.167 136.5,323.5C 134.973,323.427 133.973,324.094 133.5,325.5C 133.167,325.5 132.833,325.5 132.5,325.5C 131.167,325.5 129.833,325.5 128.5,325.5C 124.833,325.5 121.167,325.5 117.5,325.5C 117.157,327.483 117.824,328.817 119.5,329.5C 122.507,333.346 125.34,337.346 128,341.5C 128.743,343.874 128.243,345.874 126.5,347.5C 125.5,347.5 124.5,347.5 123.5,347.5C 121.964,344.908 119.631,343.908 116.5,344.5C 116.584,348.331 115.917,351.998 114.5,355.5C 113.833,355.5 113.5,355.833 113.5,356.5C 111.708,356.634 110.042,356.301 108.5,355.5C 107.37,353.685 106.704,351.685 106.5,349.5C 103.277,351.048 100.61,353.381 98.5,356.5C 96.8333,356.5 95.1667,356.5 93.5,356.5C 94.5789,348.348 95.5789,340.182 96.5,332C 96.3983,326.096 95.7316,320.263 94.5,314.5C 94.6084,310.673 95.4417,307.007 97,303.5C 101.393,293.607 108.56,286.607 118.5,282.5C 120.073,282.752 121.406,283.418 122.5,284.5 Z"/></g>
<g><path style="opacity:1" fill="#2f1b71" d="M 125.5,295.5 C 125.483,297.565 125.15,299.565 124.5,301.5C 123.728,302.694 122.728,303.694 121.5,304.5C 122.463,301.256 123.796,298.256 125.5,295.5 Z"/></g>
<g><path style="opacity:1" fill="#fcd6bd" d="M 220.5,310.5 C 218.626,315.051 216.293,319.385 213.5,323.5C 211.257,324.474 208.924,324.808 206.5,324.5C 202.629,324.185 198.962,324.518 195.5,325.5C 191.116,325.826 186.783,325.492 182.5,324.5C 179.639,320.773 177.305,316.773 175.5,312.5C 187.63,309.02 199.13,304.02 210,297.5C 211.261,297.759 212.261,298.426 213,299.5C 215.523,303.233 218.023,306.899 220.5,310.5 Z"/></g>
<g><path style="opacity:1" fill="#996a4b" d="M 220.5,303.5 C 219.885,298.474 219.051,293.474 218,288.5C 206.618,296.608 194.451,303.274 181.5,308.5C 205.247,296.958 226.58,281.958 245.5,263.5C 245.833,263.667 246.167,263.833 246.5,264C 238.926,272.539 230.426,280.039 221,286.5C 220.903,292.353 220.736,298.02 220.5,303.5 Z"/></g>
<g><path style="opacity:1" fill="#d7aa8f" d="M 220.5,303.5 C 221.623,305.979 221.623,308.312 220.5,310.5C 218.023,306.899 215.523,303.233 213,299.5C 212.261,298.426 211.261,297.759 210,297.5C 199.13,304.02 187.63,309.02 175.5,312.5C 177.364,310.986 179.364,309.653 181.5,308.5C 194.451,303.274 206.618,296.608 218,288.5C 219.051,293.474 219.885,298.474 220.5,303.5 Z"/></g>
<g><path style="opacity:1" fill="#896c8b" d="M 134.5,300.5 C 136.833,301.833 139.167,303.167 141.5,304.5C 143.717,305.369 146.05,305.702 148.5,305.5C 147.722,306.156 147.056,306.989 146.5,308C 147.148,309.44 147.481,310.94 147.5,312.5C 147.167,312.5 146.833,312.5 146.5,312.5C 145.962,310.883 145.629,309.216 145.5,307.5C 140.737,306.948 137.07,304.615 134.5,300.5 Z"/></g>
<g><path style="opacity:1" fill="#cfa78c" d="M 188.5,352.5 C 185.941,352.802 183.607,352.468 181.5,351.5C 183.5,351.5 185.5,351.5 187.5,351.5C 187.5,349.5 187.5,347.5 187.5,345.5C 183.833,345.5 180.167,345.5 176.5,345.5C 176.5,346.5 176.5,347.5 176.5,348.5C 172.857,350.943 168.857,352.776 164.5,354C 160.911,354.207 157.411,354.707 154,355.5C 152.103,353.984 149.936,353.317 147.5,353.5C 146.081,352.549 144.415,352.216 142.5,352.5C 141.167,350.833 141.167,349.167 142.5,347.5C 146.846,347.666 151.179,347.499 155.5,347C 149.933,346.532 144.933,344.698 140.5,341.5C 139.539,339.735 139.205,337.735 139.5,335.5C 143.226,335.823 146.893,335.489 150.5,334.5C 145.901,331.882 143.234,327.882 142.5,322.5C 142.962,321.12 143.962,320.453 145.5,320.5C 146.849,320.846 148.183,321.179 149.5,321.5C 150.5,321.5 151.5,321.5 152.5,321.5C 154.773,324.171 157.773,325.505 161.5,325.5C 164.167,325.5 166.833,325.5 169.5,325.5C 171.793,323.388 174.293,321.388 177,319.5C 176.667,321.167 176.333,322.833 176,324.5C 177.33,325.582 178.83,326.249 180.5,326.5C 177.243,335.085 180.243,338.918 189.5,338C 192.649,334.659 193.316,330.825 191.5,326.5C 196.179,326.666 200.845,326.499 205.5,326C 202.183,325.502 198.85,325.335 195.5,325.5C 198.962,324.518 202.629,324.185 206.5,324.5C 209.23,325.817 212.063,325.817 215,324.5C 219.413,316.005 224.08,307.672 229,299.5C 232.6,296.646 235.6,297.313 238,301.5C 244.268,319.278 239.435,333.112 223.5,343C 213.34,345.562 203.006,346.895 192.5,347C 190.536,348.451 189.203,350.284 188.5,352.5 Z"/></g>
<g><path style="opacity:0.698" fill="#7c5849" d="M 275.5,283.5 C 277.875,289.773 280.375,296.107 283,302.5C 287.436,306.428 291.269,310.761 294.5,315.5C 290.202,311.704 286.036,307.704 282,303.5C 278.919,297.09 276.752,290.424 275.5,283.5 Z"/></g>
<g><path style="opacity:1" fill="#b1836d" d="M 122.5,284.5 C 125.241,286.975 127.241,289.975 128.5,293.5C 126.821,293.285 125.821,293.952 125.5,295.5C 123.796,298.256 122.463,301.256 121.5,304.5C 119.837,306.438 119.171,308.772 119.5,311.5C 116.278,311.276 114.278,309.609 113.5,306.5C 114.779,303.53 116.112,300.53 117.5,297.5C 120.35,295.573 123.017,293.406 125.5,291C 124.086,289.007 123.086,286.84 122.5,284.5 Z"/></g>
<g><path style="opacity:1" fill="#161af9" d="M 129.5,296.5 C 132.008,299.849 134.341,303.349 136.5,307C 138.788,307.822 141.122,308.489 143.5,309C 144.163,310.518 145.163,311.685 146.5,312.5C 146.5,314.167 146.5,315.833 146.5,317.5C 144.5,317.5 142.5,317.5 140.5,317.5C 140.5,318.833 140.5,320.167 140.5,321.5C 139.778,321.918 139.278,322.584 139,323.5C 138.502,320.518 138.335,317.518 138.5,314.5C 133.208,313.11 127.874,311.61 122.5,310C 123.167,309.667 123.833,309.333 124.5,309C 123.864,306.606 123.864,304.106 124.5,301.5C 125.15,299.565 125.483,297.565 125.5,295.5C 127.263,294.046 128.597,294.38 129.5,296.5 Z"/></g>
<g><path style="opacity:1" fill="#3121ce" d="M 129.5,296.5 C 129.833,296.5 130.167,296.5 130.5,296.5C 131.5,298.167 132.833,299.5 134.5,300.5C 137.07,304.615 140.737,306.948 145.5,307.5C 145.629,309.216 145.962,310.883 146.5,312.5C 145.163,311.685 144.163,310.518 143.5,309C 141.122,308.489 138.788,307.822 136.5,307C 134.341,303.349 132.008,299.849 129.5,296.5 Z"/></g>
<g><path style="opacity:1" fill="#ae8063" d="M 158.5,307.5 C 157.167,307.167 155.833,306.833 154.5,306.5C 153.791,305.596 152.791,305.263 151.5,305.5C 150.5,305.5 149.5,305.5 148.5,305.5C 146.05,305.702 143.717,305.369 141.5,304.5C 145.327,303.325 147.327,300.658 147.5,296.5C 147.833,296.5 148.167,296.5 148.5,296.5C 149.254,299.091 150.921,300.924 153.5,302C 158.076,303.476 162.743,303.81 167.5,303C 174.139,300.767 179.639,296.934 184,291.5C 184.617,290.551 184.451,289.718 183.5,289C 182.167,288.667 180.833,288.333 179.5,288C 182.649,286.965 185.316,287.632 187.5,290C 184.976,292.869 182.809,296.036 181,299.5C 174.686,305.438 167.186,308.105 158.5,307.5 Z"/></g>
<g><path style="opacity:1" fill="#3f2977" d="M 121.5,304.5 C 121.326,306.861 120.993,309.194 120.5,311.5C 121.791,311.263 122.791,311.596 123.5,312.5C 121.901,312.768 120.568,312.434 119.5,311.5C 119.171,308.772 119.837,306.438 121.5,304.5 Z"/></g>
<g><path style="opacity:1" fill="#f7f3f6" d="M 148.5,305.5 C 149.5,305.5 150.5,305.5 151.5,305.5C 151.508,308.545 151.841,311.545 152.5,314.5C 150.486,314.608 148.82,313.942 147.5,312.5C 147.481,310.94 147.148,309.44 146.5,308C 147.056,306.989 147.722,306.156 148.5,305.5 Z"/></g>
<g><path style="opacity:1" fill="#f8f7f6" d="M 154.5,306.5 C 155.833,306.833 157.167,307.167 158.5,307.5C 159.568,308.434 160.901,308.768 162.5,308.5C 162.5,309.833 162.5,311.167 162.5,312.5C 157.689,315.667 154.689,314.333 153.5,308.5C 153.543,307.584 153.876,306.917 154.5,306.5 Z"/></g>
<g><path style="opacity:1" fill="#4c365e" d="M 172.5,316.5 C 172.5,315.5 172.5,314.5 172.5,313.5C 169.5,313.5 166.5,313.5 163.5,313.5C 163.842,312.662 164.508,312.328 165.5,312.5C 168.455,311.841 171.455,311.508 174.5,311.5C 174.598,313.553 173.931,315.22 172.5,316.5 Z"/></g>
<g><path style="opacity:1" fill="#b1b0c3" d="M 151.5,305.5 C 152.791,305.263 153.791,305.596 154.5,306.5C 153.876,306.917 153.543,307.584 153.5,308.5C 154.689,314.333 157.689,315.667 162.5,312.5C 162.5,313.167 162.833,313.5 163.5,313.5C 163.196,314.15 162.863,314.817 162.5,315.5C 157.88,316.493 153.214,316.827 148.5,316.5C 148.167,315.167 147.833,313.833 147.5,312.5C 148.82,313.942 150.486,314.608 152.5,314.5C 151.841,311.545 151.508,308.545 151.5,305.5 Z"/></g>
<g><path style="opacity:1" fill="#2e20d0" d="M 124.5,301.5 C 123.864,304.106 123.864,306.606 124.5,309C 123.833,309.333 123.167,309.667 122.5,310C 127.874,311.61 133.208,313.11 138.5,314.5C 138.335,317.518 138.502,320.518 139,323.5C 139.278,322.584 139.778,321.918 140.5,321.5C 140.216,323.415 140.549,325.081 141.5,326.5C 142.11,327.391 142.443,328.391 142.5,329.5C 140.549,328.284 139.049,326.618 138,324.5C 137.329,325.252 136.496,325.586 135.5,325.5C 135.833,324.833 136.167,324.167 136.5,323.5C 136.5,323.167 136.5,322.833 136.5,322.5C 138.33,319.022 137.33,316.689 133.5,315.5C 130.312,314.018 126.979,313.018 123.5,312.5C 122.791,311.596 121.791,311.263 120.5,311.5C 120.993,309.194 121.326,306.861 121.5,304.5C 122.728,303.694 123.728,302.694 124.5,301.5 Z"/></g>
<g><path style="opacity:1" fill="#292290" d="M 163.5,313.5 C 166.5,313.5 169.5,313.5 172.5,313.5C 172.5,314.5 172.5,315.5 172.5,316.5C 171.698,319.574 170.698,322.574 169.5,325.5C 166.833,325.5 164.167,325.5 161.5,325.5C 160.833,324.833 160.167,324.167 159.5,323.5C 162.482,323.963 165.482,324.296 168.5,324.5C 169.092,321.873 169.425,319.206 169.5,316.5C 162.342,317.588 155.342,317.588 148.5,316.5C 153.214,316.827 157.88,316.493 162.5,315.5C 162.863,314.817 163.196,314.15 163.5,313.5 Z"/></g>
<g><path style="opacity:1" fill="#171bb1" d="M 146.5,312.5 C 146.833,312.5 147.167,312.5 147.5,312.5C 147.833,313.833 148.167,315.167 148.5,316.5C 155.342,317.588 162.342,317.588 169.5,316.5C 169.425,319.206 169.092,321.873 168.5,324.5C 165.482,324.296 162.482,323.963 159.5,323.5C 156.892,323.6 154.558,322.933 152.5,321.5C 151.5,321.5 150.5,321.5 149.5,321.5C 146.691,318.975 143.691,318.975 140.5,321.5C 140.5,320.167 140.5,318.833 140.5,317.5C 142.5,317.5 144.5,317.5 146.5,317.5C 146.5,315.833 146.5,314.167 146.5,312.5 Z"/></g>
<g><path style="opacity:1" fill="#614c97" d="M 133.5,315.5 C 137.33,316.689 138.33,319.022 136.5,322.5C 136.85,319.547 135.85,317.213 133.5,315.5 Z"/></g>
<g><path style="opacity:1" fill="#6d5294" d="M 149.5,321.5 C 148.183,321.179 146.849,320.846 145.5,320.5C 143.962,320.453 142.962,321.12 142.5,322.5C 141.566,323.568 141.232,324.901 141.5,326.5C 140.549,325.081 140.216,323.415 140.5,321.5C 143.691,318.975 146.691,318.975 149.5,321.5 Z"/></g>
<g><path style="opacity:1" fill="#6a5579" d="M 152.5,321.5 C 154.558,322.933 156.892,323.6 159.5,323.5C 160.167,324.167 160.833,324.833 161.5,325.5C 157.773,325.505 154.773,324.171 152.5,321.5 Z"/></g>
<g><path style="opacity:1" fill="#5d4a99" d="M 136.5,323.5 C 136.167,324.167 135.833,324.833 135.5,325.5C 135.167,325.5 134.833,325.5 134.5,325.5C 134.167,325.5 133.833,325.5 133.5,325.5C 133.973,324.094 134.973,323.427 136.5,323.5 Z"/></g>
<g><path style="opacity:1" fill="#916c7a" d="M 128.5,325.5 C 125.833,326.167 123.167,326.833 120.5,327.5C 119.662,327.842 119.328,328.508 119.5,329.5C 117.824,328.817 117.157,327.483 117.5,325.5C 121.167,325.5 124.833,325.5 128.5,325.5 Z"/></g>
<g><path style="opacity:1" fill="#624795" d="M 128.5,325.5 C 129.833,325.5 131.167,325.5 132.5,325.5C 132.082,326.222 131.416,326.722 130.5,327C 127.183,327.498 123.85,327.665 120.5,327.5C 123.167,326.833 125.833,326.167 128.5,325.5 Z"/></g>
<g><path style="opacity:1" fill="#3021cc" d="M 132.5,325.5 C 132.833,325.5 133.167,325.5 133.5,325.5C 133.833,325.5 134.167,325.5 134.5,325.5C 134.119,326.931 133.119,327.764 131.5,328C 128.167,328.333 124.833,328.667 121.5,329C 122.793,329.49 124.127,329.657 125.5,329.5C 125.803,333.774 127.47,337.441 130.5,340.5C 131.396,342.801 131.562,345.134 131,347.5C 129.874,348.944 128.374,349.61 126.5,349.5C 123.86,348.905 121.193,348.572 118.5,348.5C 119.097,352.99 117.431,355.99 113.5,357.5C 113.5,357.167 113.5,356.833 113.5,356.5C 113.5,355.833 113.833,355.5 114.5,355.5C 116.585,353.316 117.585,350.649 117.5,347.5C 119.5,347.5 121.5,347.5 123.5,347.5C 124.5,347.5 125.5,347.5 126.5,347.5C 130.505,347.19 131.505,345.19 129.5,341.5C 127.038,336.817 123.704,332.817 119.5,329.5C 119.328,328.508 119.662,327.842 120.5,327.5C 123.85,327.665 127.183,327.498 130.5,327C 131.416,326.722 132.082,326.222 132.5,325.5 Z"/></g>
<g><path style="opacity:1" fill="#dbbda7" d="M 180.5,326.5 C 184.167,326.5 187.833,326.5 191.5,326.5C 193.316,330.825 192.649,334.659 189.5,338C 180.243,338.918 177.243,335.085 180.5,326.5 Z"/></g>
<g><path style="opacity:1" fill="#996647" d="M 237.5,348.5 C 236.521,347.235 235.521,345.901 234.5,344.5C 233.817,344.863 233.15,345.196 232.5,345.5C 231.262,345.19 231.262,344.69 232.5,344C 241.766,338.068 248.932,330.235 254,320.5C 254.667,321.5 254.667,322.5 254,323.5C 249.459,331.048 243.792,337.714 237,343.5C 237.019,345.107 237.185,346.774 237.5,348.5 Z"/></g>
<g><path style="opacity:1" fill="#745172" d="M 142.5,322.5 C 143.234,327.882 145.901,331.882 150.5,334.5C 146.893,335.489 143.226,335.823 139.5,335.5C 141.116,334.011 143.116,333.011 145.5,332.5C 144.812,331.145 143.812,330.145 142.5,329.5C 142.443,328.391 142.11,327.391 141.5,326.5C 141.232,324.901 141.566,323.568 142.5,322.5 Z"/></g>
<g><path style="opacity:1" fill="#866386" d="M 119.5,329.5 C 123.704,332.817 127.038,336.817 129.5,341.5C 131.505,345.19 130.505,347.19 126.5,347.5C 128.243,345.874 128.743,343.874 128,341.5C 125.34,337.346 122.507,333.346 119.5,329.5 Z"/></g>
<g><path style="opacity:1" fill="#422b9f" d="M 139.5,335.5 C 139.205,337.735 139.539,339.735 140.5,341.5C 141.174,343.024 142.174,344.358 143.5,345.5C 143.137,346.183 142.804,346.85 142.5,347.5C 141.167,349.167 141.167,350.833 142.5,352.5C 143.167,353.5 143.833,354.5 144.5,355.5C 140.907,354.57 139.241,352.237 139.5,348.5C 139.685,344.934 139.019,341.601 137.5,338.5C 137.64,336.97 138.307,335.97 139.5,335.5 Z"/></g>
<g><path style="opacity:1" fill="#917383" d="M 123.5,347.5 C 121.5,347.5 119.5,347.5 117.5,347.5C 117.585,350.649 116.585,353.316 114.5,355.5C 115.917,351.998 116.584,348.331 116.5,344.5C 119.631,343.908 121.964,344.908 123.5,347.5 Z"/></g>
<g><path style="opacity:1" fill="#875d54" d="M 140.5,341.5 C 144.933,344.698 149.933,346.532 155.5,347C 151.179,347.499 146.846,347.666 142.5,347.5C 142.804,346.85 143.137,346.183 143.5,345.5C 142.174,344.358 141.174,343.024 140.5,341.5 Z"/></g>
<g><path style="opacity:1" fill="#161afb" d="M 142.5,329.5 C 143.812,330.145 144.812,331.145 145.5,332.5C 143.116,333.011 141.116,334.011 139.5,335.5C 138.307,335.97 137.64,336.97 137.5,338.5C 139.019,341.601 139.685,344.934 139.5,348.5C 137.845,351.056 136.179,353.723 134.5,356.5C 131.732,363.424 129.232,370.424 127,377.5C 122.758,382.348 119.925,388.015 118.5,394.5C 117.504,394.414 116.671,394.748 116,395.5C 116.066,399.435 114.233,401.268 110.5,401C 108.738,396.237 105.404,393.237 100.5,392C 101.731,390.817 101.731,389.651 100.5,388.5C 98.5101,387.127 96.3434,386.127 94,385.5C 92.9207,382.937 92.4207,380.271 92.5,377.5C 93.6976,374.574 94.6976,371.574 95.5,368.5C 96.4959,368.586 97.3292,368.252 98,367.5C 99.4028,364.291 100.403,360.958 101,357.5C 102.444,355.845 104.278,355.178 106.5,355.5C 106.5,356.833 106.5,358.167 106.5,359.5C 109.388,360.01 111.721,359.344 113.5,357.5C 117.431,355.99 119.097,352.99 118.5,348.5C 121.193,348.572 123.86,348.905 126.5,349.5C 128.374,349.61 129.874,348.944 131,347.5C 131.562,345.134 131.396,342.801 130.5,340.5C 127.47,337.441 125.803,333.774 125.5,329.5C 124.127,329.657 122.793,329.49 121.5,329C 124.833,328.667 128.167,328.333 131.5,328C 133.119,327.764 134.119,326.931 134.5,325.5C 134.833,325.5 135.167,325.5 135.5,325.5C 136.496,325.586 137.329,325.252 138,324.5C 139.049,326.618 140.549,328.284 142.5,329.5 Z"/></g>
<g><path style="opacity:1" fill="#5c3b90" d="M 108.5,355.5 C 104.768,351.493 101.768,352.16 99.5,357.5C 99.1667,357.5 98.8333,357.5 98.5,357.5C 98.5,357.167 98.5,356.833 98.5,356.5C 100.61,353.381 103.277,351.048 106.5,349.5C 106.704,351.685 107.37,353.685 108.5,355.5 Z"/></g>
<g><path style="opacity:1" fill="#fdd6bd" d="M 181.5,351.5 C 183.607,352.468 185.941,352.802 188.5,352.5C 199.888,354.031 211.221,353.698 222.5,351.5C 222.938,351.435 223.272,351.601 223.5,352C 212.14,367.68 196.806,374.68 177.5,373C 173.66,371.582 170.326,369.415 167.5,366.5C 166.422,363.598 165.756,360.598 165.5,357.5C 166.833,357.5 168.167,357.5 169.5,357.5C 173.299,355.019 177.299,353.019 181.5,351.5 Z"/></g>
<g><path style="opacity:1" fill="#d0a88b" d="M 269.5,442.5 C 247.543,444.939 231.709,436.273 222,416.5C 220.1,408.849 220.1,401.182 222,393.5C 223.41,388.441 224.91,383.441 226.5,378.5C 227.672,374.342 229.672,370.675 232.5,367.5C 236.597,361.568 241.597,356.401 247.5,352C 250.833,351.333 254.167,351.333 257.5,352C 263.824,353.995 268.657,357.828 272,363.5C 274.386,373.64 273.052,383.307 268,392.5C 267.219,396.969 266.719,401.469 266.5,406C 267.461,415.812 268.794,425.812 270.5,436C 270.347,438.216 270.014,440.383 269.5,442.5 Z"/></g>
<g><path style="opacity:1" fill="#b5876b" d="M 181.5,351.5 C 177.299,353.019 173.299,355.019 169.5,357.5C 164.359,357.323 159.026,357.156 153.5,357C 150.723,356.939 148.723,355.772 147.5,353.5C 149.936,353.317 152.103,353.984 154,355.5C 157.411,354.707 160.911,354.207 164.5,354C 168.857,352.776 172.857,350.943 176.5,348.5C 176.5,347.5 176.5,346.5 176.5,345.5C 180.167,345.5 183.833,345.5 187.5,345.5C 187.5,347.5 187.5,349.5 187.5,351.5C 185.5,351.5 183.5,351.5 181.5,351.5 Z"/></g>
<g><path style="opacity:1" fill="#675199" d="M 108.5,355.5 C 110.042,356.301 111.708,356.634 113.5,356.5C 113.5,356.833 113.5,357.167 113.5,357.5C 111.219,357.923 109.552,357.256 108.5,355.5 Z"/></g>
<g><path style="opacity:1" fill="#221b70" d="M 144.5,355.5 C 147.611,357.091 150.944,358.091 154.5,358.5C 153.537,361.744 152.204,364.744 150.5,367.5C 151.159,364.545 151.492,361.545 151.5,358.5C 148.364,359.021 146.03,358.021 144.5,355.5 Z"/></g>
<g><path style="opacity:1" fill="#211ddd" d="M 108.5,355.5 C 109.552,357.256 111.219,357.923 113.5,357.5C 111.721,359.344 109.388,360.01 106.5,359.5C 106.5,358.167 106.5,356.833 106.5,355.5C 104.278,355.178 102.444,355.845 101,357.5C 100.403,360.958 99.4028,364.291 98,367.5C 97.3292,368.252 96.4959,368.586 95.5,368.5C 95.9841,364.53 97.3175,360.864 99.5,357.5C 101.768,352.16 104.768,351.493 108.5,355.5 Z"/></g>
<g><path style="opacity:1" fill="#d7aa8d" d="M 237.5,348.5 C 237.98,351.005 238.98,353.338 240.5,355.5C 237.317,359.213 234.65,363.213 232.5,367.5C 229.672,370.675 227.672,374.342 226.5,378.5C 219.818,389.912 217.485,402.246 219.5,415.5C 214.363,415.506 209.363,414.673 204.5,413C 199.12,410.649 194.12,407.816 189.5,404.5C 179.083,393.673 171.75,381.006 167.5,366.5C 170.326,369.415 173.66,371.582 177.5,373C 196.806,374.68 212.14,367.68 223.5,352C 223.272,351.601 222.938,351.435 222.5,351.5C 226.132,350.016 229.466,348.016 232.5,345.5C 233.15,345.196 233.817,344.863 234.5,344.5C 235.521,345.901 236.521,347.235 237.5,348.5 Z"/></g>
<g><path style="opacity:1" fill="#d0a68b" d="M 167.5,372.5 C 168.315,376.144 169.148,379.811 170,383.5C 174.647,393.062 179.147,402.728 183.5,412.5C 184.483,417.143 184.65,421.809 184,426.5C 183.041,429.588 181.541,432.255 179.5,434.5C 174.36,434.139 169.36,433.139 164.5,431.5C 153.806,418.729 149.973,404.063 153,387.5C 154.207,381.387 155.707,375.387 157.5,369.5C 157.402,367.447 158.069,365.78 159.5,364.5C 161.136,363.251 162.303,361.584 163,359.5C 165.053,363.613 166.553,367.947 167.5,372.5 Z"/></g>
<g><path style="opacity:0.775" fill="#7c5947" d="M 302.5,327.5 C 306.465,334.565 308.965,342.231 310,350.5C 311.112,361.67 310.278,372.67 307.5,383.5C 307.167,383.5 306.833,383.5 306.5,383.5C 305.903,383.265 305.57,382.765 305.5,382C 307.21,377.995 308.376,373.829 309,369.5C 309.971,354.994 307.804,340.994 302.5,327.5 Z"/></g>
<g><path style="opacity:1" fill="#966b52" d="M 142.5,352.5 C 144.415,352.216 146.081,352.549 147.5,353.5C 148.723,355.772 150.723,356.939 153.5,357C 159.026,357.156 164.359,357.323 169.5,357.5C 168.167,357.5 166.833,357.5 165.5,357.5C 165.756,360.598 166.422,363.598 167.5,366.5C 171.75,381.006 179.083,393.673 189.5,404.5C 186.944,403.457 184.777,401.79 183,399.5C 176.262,391.351 171.095,382.351 167.5,372.5C 166.553,367.947 165.053,363.613 163,359.5C 162.303,361.584 161.136,363.251 159.5,364.5C 159.472,362.418 160.139,360.584 161.5,359C 159.19,358.503 156.857,358.337 154.5,358.5C 150.944,358.091 147.611,357.091 144.5,355.5C 143.833,354.5 143.167,353.5 142.5,352.5 Z"/></g>
<g><path style="opacity:0.718" fill="#030749" d="M 150.5,367.5 C 147.625,376.243 143.959,384.576 139.5,392.5C 141.856,383.513 145.523,375.179 150.5,367.5 Z"/></g>
<g><path style="opacity:1" fill="#181173" d="M 98.5,357.5 C 98.8333,357.5 99.1667,357.5 99.5,357.5C 97.3175,360.864 95.9841,364.53 95.5,368.5C 93.8639,369.749 92.6972,371.416 92,373.5C 89.913,378.751 88.0797,384.084 86.5,389.5C 82.8791,393.415 80.8791,398.082 80.5,403.5C 79.596,402.791 79.2627,401.791 79.5,400.5C 84.8842,386.73 90.5509,373.063 96.5,359.5C 97.1667,358.833 97.8333,358.167 98.5,357.5 Z"/></g>
<g><path style="opacity:1" fill="#161afc" d="M 89.5,383.5 C 92.7397,385.113 94.2397,387.78 94,391.5C 95.4473,393.403 97.114,395.07 99,396.5C 100.666,395.66 100.833,396.16 99.5,398C 104.416,399.024 107.749,401.858 109.5,406.5C 108.687,407.814 107.687,408.981 106.5,410C 103.151,410.388 99.8175,410.221 96.5,409.5C 94.1096,407.216 91.2763,405.55 88,404.5C 87.4054,403.101 87.5721,401.768 88.5,400.5C 87.1404,398.019 86.1404,398.352 85.5,401.5C 84.675,402.386 83.675,402.719 82.5,402.5C 83.5741,398.036 84.9074,393.703 86.5,389.5C 88.0075,387.819 89.0075,385.819 89.5,383.5 Z"/></g>
<g><path style="opacity:1" fill="#1d1cd3" d="M 95.5,368.5 C 94.6976,371.574 93.6976,374.574 92.5,377.5C 91.8419,379.639 90.8419,381.639 89.5,383.5C 89.0075,385.819 88.0075,387.819 86.5,389.5C 88.0797,384.084 89.913,378.751 92,373.5C 92.6972,371.416 93.8639,369.749 95.5,368.5 Z"/></g>
<g><path style="opacity:1" fill="#131bb0" d="M 139.5,348.5 C 139.241,352.237 140.907,354.57 144.5,355.5C 146.03,358.021 148.364,359.021 151.5,358.5C 151.492,361.545 151.159,364.545 150.5,367.5C 145.523,375.179 141.856,383.513 139.5,392.5C 134.775,398.939 130.775,405.939 127.5,413.5C 126.526,415.743 126.192,418.076 126.5,420.5C 122.094,419.796 117.76,418.796 113.5,417.5C 111.409,416.135 109.076,415.468 106.5,415.5C 104.973,415.573 103.973,414.906 103.5,413.5C 106.167,413.833 108.833,414.167 111.5,414.5C 114.158,407.98 116.491,401.313 118.5,394.5C 119.925,388.015 122.758,382.348 127,377.5C 129.232,370.424 131.732,363.424 134.5,356.5C 136.179,353.723 137.845,351.056 139.5,348.5 Z"/></g>
<g><path style="opacity:1" fill="#1c20f3" d="M 92.5,377.5 C 92.4207,380.271 92.9207,382.937 94,385.5C 96.3434,386.127 98.5101,387.127 100.5,388.5C 101.731,389.651 101.731,390.817 100.5,392C 105.404,393.237 108.738,396.237 110.5,401C 114.233,401.268 116.066,399.435 116,395.5C 116.671,394.748 117.504,394.414 118.5,394.5C 116.491,401.313 114.158,407.98 111.5,414.5C 108.833,414.167 106.167,413.833 103.5,413.5C 101.167,412.167 98.8333,410.833 96.5,409.5C 99.8175,410.221 103.151,410.388 106.5,410C 107.687,408.981 108.687,407.814 109.5,406.5C 107.749,401.858 104.416,399.024 99.5,398C 100.833,396.16 100.666,395.66 99,396.5C 97.114,395.07 95.4473,393.403 94,391.5C 94.2397,387.78 92.7397,385.113 89.5,383.5C 90.8419,381.639 91.8419,379.639 92.5,377.5 Z"/></g>
<g><path style="opacity:0.831" fill="#a66069" d="M 306.5,383.5 C 306.833,383.5 307.167,383.5 307.5,383.5C 308.209,402.259 316.209,416.925 331.5,427.5C 315.529,418.25 307.196,404.25 306.5,385.5C 306.5,384.833 306.5,384.167 306.5,383.5 Z"/></g>
<g><path style="opacity:1" fill="#1c1bdd" d="M 86.5,389.5 C 84.9074,393.703 83.5741,398.036 82.5,402.5C 83.675,402.719 84.675,402.386 85.5,401.5C 86.1404,398.352 87.1404,398.019 88.5,400.5C 87.5721,401.768 87.4054,403.101 88,404.5C 91.2763,405.55 94.1096,407.216 96.5,409.5C 95.1667,409.5 93.8333,409.5 92.5,409.5C 89.1332,406.577 85.1332,404.577 80.5,403.5C 80.8791,398.082 82.8791,393.415 86.5,389.5 Z"/></g>
<g><path style="opacity:1" fill="#0a0e55" d="M 80.5,403.5 C 85.1332,404.577 89.1332,406.577 92.5,409.5C 87.8315,408.499 83.8315,406.499 80.5,403.5 Z"/></g>
<g><path style="opacity:1" fill="#e48a8d" d="M 306.5,385.5 C 307.196,404.25 315.529,418.25 331.5,427.5C 335.77,429.138 339.77,431.138 343.5,433.5C 344.231,435.889 345.898,437.223 348.5,437.5C 381.528,445.825 414.861,447.325 448.5,442C 453.255,440.815 457.588,438.982 461.5,436.5C 465.686,434.241 470.02,432.241 474.5,430.5C 473.762,435.736 470.762,439.069 465.5,440.5C 451.09,446.016 436.09,449.182 420.5,450C 395.5,450.667 370.5,450.667 345.5,450C 339.532,448.844 333.532,448.011 327.5,447.5C 308.338,443.932 293.672,433.932 283.5,417.5C 283.5,416.833 283.167,416.5 282.5,416.5C 282.421,415.07 282.754,413.736 283.5,412.5C 292.314,404.362 299.981,395.362 306.5,385.5 Z"/></g>
<g><path style="opacity:1" fill="#bb896a" d="M 167.5,372.5 C 171.095,382.351 176.262,391.351 183,399.5C 184.777,401.79 186.944,403.457 189.5,404.5C 192.305,408.26 195.972,411.093 200.5,413C 199.552,413.483 198.552,413.649 197.5,413.5C 194.536,419.34 191.703,425.34 189,431.5C 186.2,433.495 183.033,434.495 179.5,434.5C 181.541,432.255 183.041,429.588 184,426.5C 184.65,421.809 184.483,417.143 183.5,412.5C 179.147,402.728 174.647,393.062 170,383.5C 169.148,379.811 168.315,376.144 167.5,372.5 Z"/></g>
<g><path style="opacity:1" fill="#39383b" d="M 79.5,400.5 C 79.2627,401.791 79.596,402.791 80.5,403.5C 83.8315,406.499 87.8315,408.499 92.5,409.5C 95.7966,411.601 99.4632,412.935 103.5,413.5C 103.973,414.906 104.973,415.573 106.5,415.5C 109.026,417.202 108.859,418.868 106,420.5C 104.333,419.833 102.667,419.167 101,418.5C 100.235,418.57 99.7352,418.903 99.5,419.5C 94.3135,416.741 88.9801,414.241 83.5,412C 82.2506,411.26 81.2506,411.427 80.5,412.5C 79.8333,412.5 79.1667,412.5 78.5,412.5C 78.0997,410.623 77.0997,409.123 75.5,408C 76.3808,405.133 77.7141,402.633 79.5,400.5 Z"/></g>
<g><path style="opacity:1" fill="#060a60" d="M 92.5,409.5 C 93.8333,409.5 95.1667,409.5 96.5,409.5C 98.8333,410.833 101.167,412.167 103.5,413.5C 99.4632,412.935 95.7966,411.601 92.5,409.5 Z"/></g>
<g><path style="opacity:1" fill="#0d136f" d="M 139.5,392.5 C 135.98,403.202 131.647,413.536 126.5,423.5C 121.75,422.257 117.416,420.257 113.5,417.5C 117.76,418.796 122.094,419.796 126.5,420.5C 126.192,418.076 126.526,415.743 127.5,413.5C 130.775,405.939 134.775,398.939 139.5,392.5 Z"/></g>
<g><path style="opacity:1" fill="#8d634f" d="M 226.5,378.5 C 224.91,383.441 223.41,388.441 222,393.5C 220.1,401.182 220.1,408.849 222,416.5C 231.709,436.273 247.543,444.939 269.5,442.5C 270.5,442.5 271.5,442.5 272.5,442.5C 271.167,443.167 269.833,443.833 268.5,444.5C 263.13,444.392 257.797,444.725 252.5,445.5C 252.167,445.5 251.833,445.5 251.5,445.5C 251.611,444.883 251.944,444.383 252.5,444C 237.762,439.478 226.762,430.478 219.5,417C 213.775,416.722 208.275,415.555 203,413.5C 195.956,418.932 192.123,425.932 191.5,434.5C 191.167,434.5 190.833,434.5 190.5,434.5C 189.883,434.389 189.383,434.056 189,433.5C 185.715,435.137 182.215,435.804 178.5,435.5C 174.007,435.731 169.674,435.064 165.5,433.5C 165.167,432.833 164.833,432.167 164.5,431.5C 169.36,433.139 174.36,434.139 179.5,434.5C 183.033,434.495 186.2,433.495 189,431.5C 191.703,425.34 194.536,419.34 197.5,413.5C 198.552,413.649 199.552,413.483 200.5,413C 195.972,411.093 192.305,408.26 189.5,404.5C 194.12,407.816 199.12,410.649 204.5,413C 209.363,414.673 214.363,415.506 219.5,415.5C 217.485,402.246 219.818,389.912 226.5,378.5 Z"/></g>
<g><path style="opacity:0.675" fill="#825f52" d="M 157.5,369.5 C 155.707,375.387 154.207,381.387 153,387.5C 149.973,404.063 153.806,418.729 164.5,431.5C 163.833,431.5 163.167,431.5 162.5,431.5C 152.255,418.183 148.755,403.183 152,386.5C 152.774,380.374 154.607,374.708 157.5,369.5 Z"/></g>
<g><path style="opacity:0.853" fill="#1b191c" d="M 106.5,415.5 C 109.076,415.468 111.409,416.135 113.5,417.5C 117.416,420.257 121.75,422.257 126.5,423.5C 125.872,426.09 124.705,428.423 123,430.5C 121.915,429.707 120.748,429.04 119.5,428.5C 117.814,429.857 116.148,431.19 114.5,432.5C 114.859,430.629 115.859,429.129 117.5,428C 113.806,425.491 109.806,423.658 105.5,422.5C 103.819,420.992 101.819,419.992 99.5,419.5C 99.7352,418.903 100.235,418.57 101,418.5C 102.667,419.167 104.333,419.833 106,420.5C 108.859,418.868 109.026,417.202 106.5,415.5 Z"/></g>
<g><path style="opacity:1" fill="#c0bab8" d="M 99.5,419.5 C 101.819,419.992 103.819,420.992 105.5,422.5C 98.5355,437.095 91.0355,451.428 83,465.5C 82.3292,466.252 81.4959,466.586 80.5,466.5C 76.4203,466.287 74.4203,464.12 74.5,460C 76.1761,444.075 78.1761,428.242 80.5,412.5C 81.2506,411.427 82.2506,411.26 83.5,412C 88.9801,414.241 94.3135,416.741 99.5,419.5 Z"/></g>
<g><path style="opacity:0.843" fill="#a56a6d" d="M 162.5,431.5 C 163.167,431.5 163.833,431.5 164.5,431.5C 164.833,432.167 165.167,432.833 165.5,433.5C 158.492,433.334 151.492,433.5 144.5,434C 139.228,435.488 133.895,436.654 128.5,437.5C 131.21,435.892 134.21,434.725 137.5,434C 146.01,432.515 154.343,431.681 162.5,431.5 Z"/></g>
<g><path style="opacity:0.471" fill="#9c6263" d="M 282.5,416.5 C 283.167,416.5 283.5,416.833 283.5,417.5C 283.489,423.587 282.822,429.587 281.5,435.5C 286.131,440.876 287.298,446.876 285,453.5C 284.292,454.381 283.458,455.047 282.5,455.5C 285.705,449.007 285.038,443.007 280.5,437.5C 278.441,440.193 275.774,441.86 272.5,442.5C 276.479,440.685 279.312,437.685 281,433.5C 281.212,427.752 281.712,422.085 282.5,416.5 Z"/></g>
<g><path style="opacity:1" fill="#f9c1c4" d="M 165.5,433.5 C 169.674,435.064 174.007,435.731 178.5,435.5C 182.77,440.734 182.436,445.568 177.5,450C 169.711,450.685 162.044,452.019 154.5,454C 149.833,456.667 145.167,459.333 140.5,462C 137.408,462.736 134.408,462.569 131.5,461.5C 130.345,456.145 132.012,451.978 136.5,449C 134.744,448.86 133.078,449.36 131.5,450.5C 129.465,452.938 127.799,455.605 126.5,458.5C 122.414,453.866 122.747,449.366 127.5,445C 124.564,445.893 122.064,447.726 120,450.5C 119.333,448.5 119.333,446.5 120,444.5C 122.628,441.79 125.461,439.456 128.5,437.5C 133.895,436.654 139.228,435.488 144.5,434C 151.492,433.5 158.492,433.334 165.5,433.5 Z"/></g>
<g><path style="opacity:0.459" fill="#aa636c" d="M 343.5,433.5 C 365.319,441.023 387.819,444.689 411,444.5C 428.295,444.485 445.128,441.819 461.5,436.5C 457.588,438.982 453.255,440.815 448.5,442C 414.861,447.325 381.528,445.825 348.5,437.5C 345.898,437.223 344.231,435.889 343.5,433.5 Z"/></g>
<g><path style="opacity:0.757" fill="#a66069" d="M 190.5,434.5 C 190.833,434.5 191.167,434.5 191.5,434.5C 195.75,447.931 190.75,454.598 176.5,454.5C 180.835,453.548 185.002,451.882 189,449.5C 191.661,444.722 192.161,439.722 190.5,434.5 Z"/></g>
<g><path style="opacity:0.565" fill="#b07177" d="M 251.5,445.5 C 251.833,445.5 252.167,445.5 252.5,445.5C 240.087,447.955 227.754,451.121 215.5,455C 212.034,458.04 210.7,461.874 211.5,466.5C 214.599,466.908 216.933,465.741 218.5,463C 223.603,461.144 223.769,461.644 219,464.5C 214.106,472.926 216.439,476.592 226,475.5C 226.456,471.597 228.29,468.597 231.5,466.5C 231.833,466.833 232.167,467.167 232.5,467.5C 230.273,470.76 229.606,474.094 230.5,477.5C 231.719,479.301 233.552,480.301 236,480.5C 240.224,480.164 244.058,478.831 247.5,476.5C 248.107,476.624 248.44,476.957 248.5,477.5C 246.262,479.116 243.929,480.449 241.5,481.5C 238.167,481.5 234.833,481.5 231.5,481.5C 231.082,480.778 230.416,480.278 229.5,480C 224.257,480.436 219.757,478.936 216,475.5C 213.585,471.263 211.419,466.93 209.5,462.5C 211.066,456.101 215.066,452.267 221.5,451C 231.405,448.586 241.405,446.752 251.5,445.5 Z"/></g>
<g><path style="opacity:1" fill="#817978" d="M 105.5,422.5 C 109.806,423.658 113.806,425.491 117.5,428C 115.859,429.129 114.859,430.629 114.5,432.5C 111.253,438.083 107.253,443.083 102.5,447.5C 96.6977,454.143 91.031,460.977 85.5,468C 83.3258,468.877 81.6591,468.377 80.5,466.5C 81.4959,466.586 82.3292,466.252 83,465.5C 91.0355,451.428 98.5355,437.095 105.5,422.5 Z"/></g>
<g><path style="opacity:1" fill="#f9c0c4" d="M 268.5,444.5 C 271.874,445.691 273.54,448.191 273.5,452C 272.699,454.598 271.366,456.931 269.5,459C 264.659,461.722 259.659,464.056 254.5,466C 249.866,468.64 245.866,471.973 242.5,476C 238.605,477.266 234.605,477.766 230.5,477.5C 229.606,474.094 230.273,470.76 232.5,467.5C 232.167,467.167 231.833,466.833 231.5,466.5C 228.29,468.597 226.456,471.597 226,475.5C 216.439,476.592 214.106,472.926 219,464.5C 223.769,461.644 223.603,461.144 218.5,463C 216.933,465.741 214.599,466.908 211.5,466.5C 210.7,461.874 212.034,458.04 215.5,455C 227.754,451.121 240.087,447.955 252.5,445.5C 257.797,444.725 263.13,444.392 268.5,444.5 Z"/></g>
<g><path style="opacity:1" fill="#b66b74" d="M 465.5,440.5 C 458.994,444.06 451.994,446.56 444.5,448C 434.599,450.081 424.599,451.414 414.5,452C 394.5,452.667 374.5,452.667 354.5,452C 345.172,451.647 336.172,450.147 327.5,447.5C 333.532,448.011 339.532,448.844 345.5,450C 370.5,450.667 395.5,450.667 420.5,450C 436.09,449.182 451.09,446.016 465.5,440.5 Z"/></g>
<g><path style="opacity:1" fill="#e38e92" d="M 190.5,434.5 C 192.161,439.722 191.661,444.722 189,449.5C 185.002,451.882 180.835,453.548 176.5,454.5C 168.708,454.288 161.041,455.121 153.5,457C 149.924,459.758 146.591,462.591 143.5,465.5C 140.482,465.665 137.482,465.498 134.5,465C 132.574,464.578 131.574,463.411 131.5,461.5C 134.408,462.569 137.408,462.736 140.5,462C 145.167,459.333 149.833,456.667 154.5,454C 162.044,452.019 169.711,450.685 177.5,450C 182.436,445.568 182.77,440.734 178.5,435.5C 182.215,435.804 185.715,435.137 189,433.5C 189.383,434.056 189.883,434.389 190.5,434.5 Z"/></g>
<g><path style="opacity:0.42" fill="#514c4c" d="M 78.5,412.5 C 79.1667,412.5 79.8333,412.5 80.5,412.5C 78.1761,428.242 76.1761,444.075 74.5,460C 74.4203,464.12 76.4203,466.287 80.5,466.5C 81.6591,468.377 83.3258,468.877 85.5,468C 91.031,460.977 96.6977,454.143 102.5,447.5C 98.2969,454.55 93.4635,461.216 88,467.5C 86.871,469.141 85.371,470.141 83.5,470.5C 82.3588,469.661 81.0255,468.994 79.5,468.5C 77.7305,471.706 76.2305,475.039 75,478.5C 74.501,475.482 74.6677,472.482 75.5,469.5C 75.7674,467.024 75.1007,466.357 73.5,467.5C 73.0617,465.874 72.7284,464.207 72.5,462.5C 74.72,445.853 76.72,429.186 78.5,412.5 Z"/></g>
<g><path style="opacity:0.686" fill="#a96069" d="M 176.5,454.5 C 169.608,455.426 162.608,456.593 155.5,458C 151.598,460.751 147.598,463.251 143.5,465.5C 146.591,462.591 149.924,459.758 153.5,457C 161.041,455.121 168.708,454.288 176.5,454.5 Z"/></g>
<g><path style="opacity:1" fill="#e38c8f" d="M 282.5,455.5 C 279.609,459.627 275.609,462.294 270.5,463.5C 264.188,465.153 258.188,467.653 252.5,471C 250.859,472.129 249.859,473.629 249.5,475.5C 249.672,476.492 249.338,477.158 248.5,477.5C 248.44,476.957 248.107,476.624 247.5,476.5C 244.058,478.831 240.224,480.164 236,480.5C 233.552,480.301 231.719,479.301 230.5,477.5C 234.605,477.766 238.605,477.266 242.5,476C 245.866,471.973 249.866,468.64 254.5,466C 259.659,464.056 264.659,461.722 269.5,459C 271.366,456.931 272.699,454.598 273.5,452C 273.54,448.191 271.874,445.691 268.5,444.5C 269.833,443.833 271.167,443.167 272.5,442.5C 275.774,441.86 278.441,440.193 280.5,437.5C 285.038,443.007 285.705,449.007 282.5,455.5 Z"/></g>
<g><path style="opacity:0.882" fill="#b9747b" d="M 128.5,437.5 C 125.461,439.456 122.628,441.79 120,444.5C 119.333,446.5 119.333,448.5 120,450.5C 122.064,447.726 124.564,445.893 127.5,445C 122.747,449.366 122.414,453.866 126.5,458.5C 127.799,455.605 129.465,452.938 131.5,450.5C 133.078,449.36 134.744,448.86 136.5,449C 132.012,451.978 130.345,456.145 131.5,461.5C 131.574,463.411 132.574,464.578 134.5,465C 137.482,465.498 140.482,465.665 143.5,465.5C 140.36,466.641 137.027,466.808 133.5,466C 124.833,463.168 119.499,457.334 117.5,448.5C 118.821,442.512 122.488,438.846 128.5,437.5 Z"/></g>
<g><path style="opacity:0.813" fill="#0f0e0e" d="M 83.5,470.5 C 80.8181,474.507 77.8181,478.173 74.5,481.5C 74.1667,481.5 73.8333,481.5 73.5,481.5C 73.5,476.833 73.5,472.167 73.5,467.5C 75.1007,466.357 75.7674,467.024 75.5,469.5C 74.6677,472.482 74.501,475.482 75,478.5C 76.2305,475.039 77.7305,471.706 79.5,468.5C 81.0255,468.994 82.3588,469.661 83.5,470.5 Z"/></g>
<g><path style="opacity:0.145" fill="#a56168" d="M 270.5,463.5 C 263.079,466.712 256.079,470.712 249.5,475.5C 249.859,473.629 250.859,472.129 252.5,471C 258.188,467.653 264.188,465.153 270.5,463.5 Z"/></g>
</svg>
